  0
SECTION
  2
HEADER
  9
$ACADVER
  1
AC1009
  9
$FILLMODE
 70
 0
  9
$SPLFRAME
 70
 1
  9
$EXTMIN
 10
0
 20
0
 30
0.0
  9
$EXTMAX
 10
1058.33
 20
1058.33
 30
0.0
  0
ENDSEC
  0
SECTION
  2
TABLES
  0
TABLE
  2
LAYER
 70
1
  0
LAYER
  2
0
 70
     0
 62
     7
  6
CONTINUOUS
  0
ENDTAB
  0
ENDSEC
  0
SECTION
  2
ENTITIES
  0
LINE
  8
0
 62
     0
 10
0.0950846
 20
111.735
 30
0.0
 11
320.996
 21
111.735
 31
0.0
  0
LINE
  8
0
 62
     0
 10
320.996
 20
111.735
 30
0.0
 11
320.996
 21
0.385851
 31
0.0
  0
LINE
  8
0
 62
     0
 10
320.996
 20
0.385851
 30
0.0
 11
0.0950846
 21
0.385851
 31
0.0
  0
LINE
  8
0
 62
     0
 10
0.0950846
 20
0.385851
 30
0.0
 11
0.0950846
 21
111.735
 31
0.0
  0
LINE
  8
0
 62
     0
 10
316.651
 20
5.33852
 30
0.0
 11
316.387
 21
5.20347
 31
0.0
  0
LINE
  8
0
 62
     0
 10
316.387
 20
5.20347
 30
0.0
 11
316.177
 21
4.99403
 31
0.0
  0
LINE
  8
0
 62
     0
 10
316.177
 20
4.99403
 30
0.0
 11
316.042
 21
4.72944
 31
0.0
  0
LINE
  8
0
 62
     0
 10
316.042
 20
4.72944
 30
0.0
 11
315.995
 21
4.43452
 31
0.0
  0
LINE
  8
0
 62
     0
 10
315.995
 20
4.43452
 30
0.0
 11
316.042
 21
4.14239
 31
0.0
  0
LINE
  8
0
 62
     0
 10
316.042
 20
4.14239
 30
0.0
 11
316.177
 21
3.87643
 31
0.0
  0
LINE
  8
0
 62
     0
 10
316.177
 20
3.87643
 30
0.0
 11
316.387
 21
3.66695
 31
0.0
  0
LINE
  8
0
 62
     0
 10
316.387
 20
3.66695
 30
0.0
 11
316.651
 21
3.53191
 31
0.0
  0
LINE
  8
0
 62
     0
 10
316.651
 20
3.53191
 30
0.0
 11
316.946
 21
3.48506
 31
0.0
  0
LINE
  8
0
 62
     0
 10
316.946
 20
3.48506
 30
0.0
 11
317.238
 21
3.53191
 31
0.0
  0
LINE
  8
0
 62
     0
 10
317.238
 20
3.53191
 30
0.0
 11
317.504
 21
3.66695
 31
0.0
  0
LINE
  8
0
 62
     0
 10
317.504
 20
3.66695
 30
0.0
 11
317.713
 21
3.87643
 31
0.0
  0
LINE
  8
0
 62
     0
 10
317.713
 20
3.87643
 30
0.0
 11
317.849
 21
4.14239
 31
0.0
  0
LINE
  8
0
 62
     0
 10
317.849
 20
4.14239
 30
0.0
 11
317.895
 21
4.43452
 31
0.0
  0
LINE
  8
0
 62
     0
 10
317.895
 20
4.43452
 30
0.0
 11
317.849
 21
4.72944
 31
0.0
  0
LINE
  8
0
 62
     0
 10
317.849
 20
4.72944
 30
0.0
 11
317.713
 21
4.99403
 31
0.0
  0
LINE
  8
0
 62
     0
 10
317.713
 20
4.99403
 30
0.0
 11
317.504
 21
5.20347
 31
0.0
  0
LINE
  8
0
 62
     0
 10
317.504
 20
5.20347
 30
0.0
 11
317.238
 21
5.33852
 31
0.0
  0
LINE
  8
0
 62
     0
 10
317.238
 20
5.33852
 30
0.0
 11
316.946
 21
5.38674
 31
0.0
  0
LINE
  8
0
 62
     0
 10
316.946
 20
5.38674
 30
0.0
 11
316.651
 21
5.33852
 31
0.0
  0
LINE
  8
0
 62
     0
 10
212.385
 20
5.33852
 30
0.0
 11
212.12
 21
5.20347
 31
0.0
  0
LINE
  8
0
 62
     0
 10
212.12
 20
5.20347
 30
0.0
 11
211.909
 21
4.99403
 31
0.0
  0
LINE
  8
0
 62
     0
 10
211.909
 20
4.99403
 30
0.0
 11
211.774
 21
4.72944
 31
0.0
  0
LINE
  8
0
 62
     0
 10
211.774
 20
4.72944
 30
0.0
 11
211.729
 21
4.43452
 31
0.0
  0
LINE
  8
0
 62
     0
 10
211.729
 20
4.43452
 30
0.0
 11
211.774
 21
4.14239
 31
0.0
  0
LINE
  8
0
 62
     0
 10
211.774
 20
4.14239
 30
0.0
 11
211.909
 21
3.87643
 31
0.0
  0
LINE
  8
0
 62
     0
 10
211.909
 20
3.87643
 30
0.0
 11
212.12
 21
3.66695
 31
0.0
  0
LINE
  8
0
 62
     0
 10
212.12
 20
3.66695
 30
0.0
 11
212.385
 21
3.53191
 31
0.0
  0
LINE
  8
0
 62
     0
 10
212.385
 20
3.53191
 30
0.0
 11
212.678
 21
3.48506
 31
0.0
  0
LINE
  8
0
 62
     0
 10
212.678
 20
3.48506
 30
0.0
 11
212.972
 21
3.53191
 31
0.0
  0
LINE
  8
0
 62
     0
 10
212.972
 20
3.53191
 30
0.0
 11
213.236
 21
3.66695
 31
0.0
  0
LINE
  8
0
 62
     0
 10
213.236
 20
3.66695
 30
0.0
 11
213.447
 21
3.87643
 31
0.0
  0
LINE
  8
0
 62
     0
 10
213.447
 20
3.87643
 30
0.0
 11
213.582
 21
4.14239
 31
0.0
  0
LINE
  8
0
 62
     0
 10
213.582
 20
4.14239
 30
0.0
 11
213.629
 21
4.43452
 31
0.0
  0
LINE
  8
0
 62
     0
 10
213.629
 20
4.43452
 30
0.0
 11
213.582
 21
4.72944
 31
0.0
  0
LINE
  8
0
 62
     0
 10
213.582
 20
4.72944
 30
0.0
 11
213.447
 21
4.99403
 31
0.0
  0
LINE
  8
0
 62
     0
 10
213.447
 20
4.99403
 30
0.0
 11
213.236
 21
5.20347
 31
0.0
  0
LINE
  8
0
 62
     0
 10
213.236
 20
5.20347
 30
0.0
 11
212.972
 21
5.33852
 31
0.0
  0
LINE
  8
0
 62
     0
 10
212.972
 20
5.33852
 30
0.0
 11
212.678
 21
5.38674
 31
0.0
  0
LINE
  8
0
 62
     0
 10
212.678
 20
5.38674
 30
0.0
 11
212.385
 21
5.33852
 31
0.0
  0
LINE
  8
0
 62
     0
 10
108.118
 20
5.33852
 30
0.0
 11
107.852
 21
5.20347
 31
0.0
  0
LINE
  8
0
 62
     0
 10
107.852
 20
5.20347
 30
0.0
 11
107.643
 21
4.99403
 31
0.0
  0
LINE
  8
0
 62
     0
 10
107.643
 20
4.99403
 30
0.0
 11
107.508
 21
4.72944
 31
0.0
  0
LINE
  8
0
 62
     0
 10
107.508
 20
4.72944
 30
0.0
 11
107.462
 21
4.43452
 31
0.0
  0
LINE
  8
0
 62
     0
 10
107.462
 20
4.43452
 30
0.0
 11
107.508
 21
4.14239
 31
0.0
  0
LINE
  8
0
 62
     0
 10
107.508
 20
4.14239
 30
0.0
 11
107.643
 21
3.87643
 31
0.0
  0
LINE
  8
0
 62
     0
 10
107.643
 20
3.87643
 30
0.0
 11
107.852
 21
3.66695
 31
0.0
  0
LINE
  8
0
 62
     0
 10
107.852
 20
3.66695
 30
0.0
 11
108.118
 21
3.53191
 31
0.0
  0
LINE
  8
0
 62
     0
 10
108.118
 20
3.53191
 30
0.0
 11
108.412
 21
3.48506
 31
0.0
  0
LINE
  8
0
 62
     0
 10
108.412
 20
3.48506
 30
0.0
 11
108.705
 21
3.53191
 31
0.0
  0
LINE
  8
0
 62
     0
 10
108.705
 20
3.53191
 30
0.0
 11
108.97
 21
3.66695
 31
0.0
  0
LINE
  8
0
 62
     0
 10
108.97
 20
3.66695
 30
0.0
 11
109.179
 21
3.87643
 31
0.0
  0
LINE
  8
0
 62
     0
 10
109.179
 20
3.87643
 30
0.0
 11
109.314
 21
4.14239
 31
0.0
  0
LINE
  8
0
 62
     0
 10
109.314
 20
4.14239
 30
0.0
 11
109.361
 21
4.43452
 31
0.0
  0
LINE
  8
0
 62
     0
 10
109.361
 20
4.43452
 30
0.0
 11
109.314
 21
4.72944
 31
0.0
  0
LINE
  8
0
 62
     0
 10
109.314
 20
4.72944
 30
0.0
 11
109.179
 21
4.99403
 31
0.0
  0
LINE
  8
0
 62
     0
 10
109.179
 20
4.99403
 30
0.0
 11
108.97
 21
5.20347
 31
0.0
  0
LINE
  8
0
 62
     0
 10
108.97
 20
5.20347
 30
0.0
 11
108.705
 21
5.33852
 31
0.0
  0
LINE
  8
0
 62
     0
 10
108.705
 20
5.33852
 30
0.0
 11
108.412
 21
5.38674
 31
0.0
  0
LINE
  8
0
 62
     0
 10
108.412
 20
5.38674
 30
0.0
 11
108.118
 21
5.33852
 31
0.0
  0
LINE
  8
0
 62
     0
 10
3.85025
 20
5.33852
 30
0.0
 11
3.58567
 21
5.20347
 31
0.0
  0
LINE
  8
0
 62
     0
 10
3.58567
 20
5.20347
 30
0.0
 11
3.37482
 21
4.99403
 31
0.0
  0
LINE
  8
0
 62
     0
 10
3.37482
 20
4.99403
 30
0.0
 11
3.24115
 21
4.72944
 31
0.0
  0
LINE
  8
0
 62
     0
 10
3.24115
 20
4.72944
 30
0.0
 11
3.19291
 21
4.43452
 31
0.0
  0
LINE
  8
0
 62
     0
 10
3.19291
 20
4.43452
 30
0.0
 11
3.24115
 21
4.14239
 31
0.0
  0
LINE
  8
0
 62
     0
 10
3.24115
 20
4.14239
 30
0.0
 11
3.37482
 21
3.87643
 31
0.0
  0
LINE
  8
0
 62
     0
 10
3.37482
 20
3.87643
 30
0.0
 11
3.58567
 21
3.66695
 31
0.0
  0
LINE
  8
0
 62
     0
 10
3.58567
 20
3.66695
 30
0.0
 11
3.85025
 21
3.53191
 31
0.0
  0
LINE
  8
0
 62
     0
 10
3.85025
 20
3.53191
 30
0.0
 11
4.14376
 21
3.48506
 31
0.0
  0
LINE
  8
0
 62
     0
 10
4.14376
 20
3.48506
 30
0.0
 11
4.43727
 21
3.53191
 31
0.0
  0
LINE
  8
0
 62
     0
 10
4.43727
 20
3.53191
 30
0.0
 11
4.70186
 21
3.66695
 31
0.0
  0
LINE
  8
0
 62
     0
 10
4.70186
 20
3.66695
 30
0.0
 11
4.91271
 21
3.87643
 31
0.0
  0
LINE
  8
0
 62
     0
 10
4.91271
 20
3.87643
 30
0.0
 11
5.04776
 21
4.14239
 31
0.0
  0
LINE
  8
0
 62
     0
 10
5.04776
 20
4.14239
 30
0.0
 11
5.09323
 21
4.43452
 31
0.0
  0
LINE
  8
0
 62
     0
 10
5.09323
 20
4.43452
 30
0.0
 11
5.04776
 21
4.72944
 31
0.0
  0
LINE
  8
0
 62
     0
 10
5.04776
 20
4.72944
 30
0.0
 11
4.91271
 21
4.99403
 31
0.0
  0
LINE
  8
0
 62
     0
 10
4.91271
 20
4.99403
 30
0.0
 11
4.70186
 21
5.20347
 31
0.0
  0
LINE
  8
0
 62
     0
 10
4.70186
 20
5.20347
 30
0.0
 11
4.43727
 21
5.33852
 31
0.0
  0
LINE
  8
0
 62
     0
 10
4.43727
 20
5.33852
 30
0.0
 11
4.14376
 21
5.38674
 31
0.0
  0
LINE
  8
0
 62
     0
 10
4.14376
 20
5.38674
 30
0.0
 11
3.85025
 21
5.33852
 31
0.0
  0
LINE
  8
0
 62
     0
 10
132.162
 20
24.9122
 30
0.0
 11
132.162
 21
20.2117
 31
0.0
  0
LINE
  8
0
 62
     0
 10
132.162
 20
20.2117
 30
0.0
 11
92.4373
 21
20.2117
 31
0.0
  0
LINE
  8
0
 62
     0
 10
92.4373
 20
20.2117
 30
0.0
 11
92.4373
 21
23.4418
 31
0.0
  0
LINE
  8
0
 62
     0
 10
92.4373
 20
23.4418
 30
0.0
 11
90.7122
 21
23.4418
 31
0.0
  0
LINE
  8
0
 62
     0
 10
90.7122
 20
23.4418
 30
0.0
 11
90.7122
 21
24.3623
 31
0.0
  0
LINE
  8
0
 62
     0
 10
90.7122
 20
24.3623
 30
0.0
 11
87.5122
 21
24.3623
 31
0.0
  0
LINE
  8
0
 62
     0
 10
87.5122
 20
24.3623
 30
0.0
 11
87.5122
 21
23.4418
 31
0.0
  0
LINE
  8
0
 62
     0
 10
87.5122
 20
23.4418
 30
0.0
 11
85.7871
 21
23.4418
 31
0.0
  0
LINE
  8
0
 62
     0
 10
85.7871
 20
23.4418
 30
0.0
 11
85.7871
 21
20.2117
 31
0.0
  0
LINE
  8
0
 62
     0
 10
85.7871
 20
20.2117
 30
0.0
 11
84.963
 21
20.2117
 31
0.0
  0
LINE
  8
0
 62
     0
 10
84.963
 20
20.2117
 30
0.0
 11
84.963
 21
17.5107
 31
0.0
  0
LINE
  8
0
 62
     0
 10
84.963
 20
17.5107
 30
0.0
 11
85.7871
 21
17.5107
 31
0.0
  0
LINE
  8
0
 62
     0
 10
85.7871
 20
17.5107
 30
0.0
 11
85.7871
 21
11.242
 31
0.0
  0
LINE
  8
0
 62
     0
 10
85.7871
 20
11.242
 30
0.0
 11
87.5122
 21
11.242
 31
0.0
  0
LINE
  8
0
 62
     0
 10
87.5122
 20
11.242
 30
0.0
 11
87.5122
 21
10.2609
 31
0.0
  0
LINE
  8
0
 62
     0
 10
87.5122
 20
10.2609
 30
0.0
 11
90.7122
 21
10.2609
 31
0.0
  0
LINE
  8
0
 62
     0
 10
90.7122
 20
10.2609
 30
0.0
 11
90.7122
 21
11.242
 31
0.0
  0
LINE
  8
0
 62
     0
 10
90.7122
 20
11.242
 30
0.0
 11
92.4373
 21
11.242
 31
0.0
  0
LINE
  8
0
 62
     0
 10
92.4373
 20
11.242
 30
0.0
 11
92.4373
 21
15.7124
 31
0.0
  0
LINE
  8
0
 62
     0
 10
92.4373
 20
15.7124
 30
0.0
 11
132.162
 21
15.7124
 31
0.0
  0
LINE
  8
0
 62
     0
 10
132.162
 20
15.7124
 30
0.0
 11
132.162
 21
11.0105
 31
0.0
  0
LINE
  8
0
 62
     0
 10
132.162
 20
11.0105
 30
0.0
 11
146.062
 21
11.0105
 31
0.0
  0
LINE
  8
0
 62
     0
 10
146.062
 20
11.0105
 30
0.0
 11
146.062
 21
15.7124
 31
0.0
  0
LINE
  8
0
 62
     0
 10
146.062
 20
15.7124
 30
0.0
 11
185.787
 21
15.7124
 31
0.0
  0
LINE
  8
0
 62
     0
 10
185.787
 20
15.7124
 30
0.0
 11
185.787
 21
11.242
 31
0.0
  0
LINE
  8
0
 62
     0
 10
185.787
 20
11.242
 30
0.0
 11
187.512
 21
11.242
 31
0.0
  0
LINE
  8
0
 62
     0
 10
187.512
 20
11.242
 30
0.0
 11
187.512
 21
10.2609
 31
0.0
  0
LINE
  8
0
 62
     0
 10
187.512
 20
10.2609
 30
0.0
 11
190.712
 21
10.2609
 31
0.0
  0
LINE
  8
0
 62
     0
 10
190.712
 20
10.2609
 30
0.0
 11
190.712
 21
11.242
 31
0.0
  0
LINE
  8
0
 62
     0
 10
190.712
 20
11.242
 30
0.0
 11
192.437
 21
11.242
 31
0.0
  0
LINE
  8
0
 62
     0
 10
192.437
 20
11.242
 30
0.0
 11
192.437
 21
17.5107
 31
0.0
  0
LINE
  8
0
 62
     0
 10
192.437
 20
17.5107
 30
0.0
 11
193.263
 21
17.5107
 31
0.0
  0
LINE
  8
0
 62
     0
 10
193.263
 20
17.5107
 30
0.0
 11
193.263
 21
20.2117
 31
0.0
  0
LINE
  8
0
 62
     0
 10
193.263
 20
20.2117
 30
0.0
 11
192.437
 21
20.2117
 31
0.0
  0
LINE
  8
0
 62
     0
 10
192.437
 20
20.2117
 30
0.0
 11
192.437
 21
23.4418
 31
0.0
  0
LINE
  8
0
 62
     0
 10
192.437
 20
23.4418
 30
0.0
 11
190.712
 21
23.4418
 31
0.0
  0
LINE
  8
0
 62
     0
 10
190.712
 20
23.4418
 30
0.0
 11
190.712
 21
24.3623
 31
0.0
  0
LINE
  8
0
 62
     0
 10
190.712
 20
24.3623
 30
0.0
 11
187.512
 21
24.3623
 31
0.0
  0
LINE
  8
0
 62
     0
 10
187.512
 20
24.3623
 30
0.0
 11
187.512
 21
23.4418
 31
0.0
  0
LINE
  8
0
 62
     0
 10
187.512
 20
23.4418
 30
0.0
 11
185.787
 21
23.4418
 31
0.0
  0
LINE
  8
0
 62
     0
 10
185.787
 20
23.4418
 30
0.0
 11
185.787
 21
20.2117
 31
0.0
  0
LINE
  8
0
 62
     0
 10
185.787
 20
20.2117
 30
0.0
 11
146.062
 21
20.2117
 31
0.0
  0
LINE
  8
0
 62
     0
 10
146.062
 20
20.2117
 30
0.0
 11
146.062
 21
24.9122
 31
0.0
  0
LINE
  8
0
 62
     0
 10
146.062
 20
24.9122
 30
0.0
 11
132.162
 21
24.9122
 31
0.0
  0
LINE
  8
0
 62
     0
 10
13.101
 20
24.9122
 30
0.0
 11
26.9999
 21
24.9122
 31
0.0
  0
LINE
  8
0
 62
     0
 10
26.9999
 20
24.9122
 30
0.0
 11
26.9999
 21
11.0105
 31
0.0
  0
LINE
  8
0
 62
     0
 10
26.9999
 20
11.0105
 30
0.0
 11
13.101
 21
11.0105
 31
0.0
  0
LINE
  8
0
 62
     0
 10
13.101
 20
11.0105
 30
0.0
 11
13.101
 21
24.9122
 31
0.0
  0
LINE
  8
0
 62
     0
 10
36.9122
 20
24.9122
 30
0.0
 11
50.8123
 21
24.9122
 31
0.0
  0
LINE
  8
0
 62
     0
 10
50.8123
 20
24.9122
 30
0.0
 11
50.8123
 21
11.0105
 31
0.0
  0
LINE
  8
0
 62
     0
 10
50.8123
 20
11.0105
 30
0.0
 11
36.9122
 21
11.0105
 31
0.0
  0
LINE
  8
0
 62
     0
 10
36.9122
 20
11.0105
 30
0.0
 11
36.9122
 21
24.9122
 31
0.0
  0
LINE
  8
0
 62
     0
 10
60.7261
 20
24.9122
 30
0.0
 11
74.6248
 21
24.9122
 31
0.0
  0
LINE
  8
0
 62
     0
 10
74.6248
 20
24.9122
 30
0.0
 11
74.6248
 21
11.0105
 31
0.0
  0
LINE
  8
0
 62
     0
 10
74.6248
 20
11.0105
 30
0.0
 11
60.7261
 21
11.0105
 31
0.0
  0
LINE
  8
0
 62
     0
 10
60.7261
 20
11.0105
 30
0.0
 11
60.7261
 21
24.9122
 31
0.0
  0
LINE
  8
0
 62
     0
 10
203.601
 20
24.9122
 30
0.0
 11
217.5
 21
24.9122
 31
0.0
  0
LINE
  8
0
 62
     0
 10
217.5
 20
24.9122
 30
0.0
 11
217.5
 21
11.0105
 31
0.0
  0
LINE
  8
0
 62
     0
 10
217.5
 20
11.0105
 30
0.0
 11
203.601
 21
11.0105
 31
0.0
  0
LINE
  8
0
 62
     0
 10
203.601
 20
11.0105
 30
0.0
 11
203.601
 21
24.9122
 31
0.0
  0
LINE
  8
0
 62
     0
 10
227.412
 20
24.9122
 30
0.0
 11
241.312
 21
24.9122
 31
0.0
  0
LINE
  8
0
 62
     0
 10
241.312
 20
24.9122
 30
0.0
 11
241.312
 21
11.0105
 31
0.0
  0
LINE
  8
0
 62
     0
 10
241.312
 20
11.0105
 30
0.0
 11
227.412
 21
11.0105
 31
0.0
  0
LINE
  8
0
 62
     0
 10
227.412
 20
11.0105
 30
0.0
 11
227.412
 21
24.9122
 31
0.0
  0
LINE
  8
0
 62
     0
 10
258.37
 20
24.9122
 30
0.0
 11
272.27
 21
24.9122
 31
0.0
  0
LINE
  8
0
 62
     0
 10
272.27
 20
24.9122
 30
0.0
 11
272.27
 21
11.0105
 31
0.0
  0
LINE
  8
0
 62
     0
 10
272.27
 20
11.0105
 30
0.0
 11
258.37
 21
11.0105
 31
0.0
  0
LINE
  8
0
 62
     0
 10
258.37
 20
11.0105
 30
0.0
 11
258.37
 21
24.9122
 31
0.0
  0
LINE
  8
0
 62
     0
 10
277.42
 20
24.9122
 30
0.0
 11
291.32
 21
24.9122
 31
0.0
  0
LINE
  8
0
 62
     0
 10
291.32
 20
24.9122
 30
0.0
 11
291.32
 21
11.0105
 31
0.0
  0
LINE
  8
0
 62
     0
 10
291.32
 20
11.0105
 30
0.0
 11
277.42
 21
11.0105
 31
0.0
  0
LINE
  8
0
 62
     0
 10
277.42
 20
11.0105
 30
0.0
 11
277.42
 21
24.9122
 31
0.0
  0
LINE
  8
0
 62
     0
 10
296.47
 20
24.9122
 30
0.0
 11
310.37
 21
24.9122
 31
0.0
  0
LINE
  8
0
 62
     0
 10
310.37
 20
24.9122
 30
0.0
 11
310.37
 21
11.0105
 31
0.0
  0
LINE
  8
0
 62
     0
 10
310.37
 20
11.0105
 30
0.0
 11
296.47
 21
11.0105
 31
0.0
  0
LINE
  8
0
 62
     0
 10
296.47
 20
11.0105
 30
0.0
 11
296.47
 21
24.9122
 31
0.0
  0
LINE
  8
0
 62
     0
 10
22.626
 20
43.9621
 30
0.0
 11
22.626
 21
39.2617
 31
0.0
  0
LINE
  8
0
 62
     0
 10
22.626
 20
39.2617
 30
0.0
 11
20.9999
 21
39.2617
 31
0.0
  0
LINE
  8
0
 62
     0
 10
20.9999
 20
39.2617
 30
0.0
 11
20.9999
 21
42.4917
 31
0.0
  0
LINE
  8
0
 62
     0
 10
20.9999
 20
42.4917
 30
0.0
 11
19.276
 21
42.4917
 31
0.0
  0
LINE
  8
0
 62
     0
 10
19.276
 20
42.4917
 30
0.0
 11
19.276
 21
43.4125
 31
0.0
  0
LINE
  8
0
 62
     0
 10
19.276
 20
43.4125
 30
0.0
 11
16.0748
 21
43.4125
 31
0.0
  0
LINE
  8
0
 62
     0
 10
16.0748
 20
43.4125
 30
0.0
 11
16.0748
 21
42.4917
 31
0.0
  0
LINE
  8
0
 62
     0
 10
16.0748
 20
42.4917
 30
0.0
 11
14.3509
 21
42.4917
 31
0.0
  0
LINE
  8
0
 62
     0
 10
14.3509
 20
42.4917
 30
0.0
 11
14.3509
 21
39.2617
 31
0.0
  0
LINE
  8
0
 62
     0
 10
14.3509
 20
39.2617
 30
0.0
 11
13.5254
 21
39.2617
 31
0.0
  0
LINE
  8
0
 62
     0
 10
13.5254
 20
39.2617
 30
0.0
 11
13.5254
 21
36.5608
 31
0.0
  0
LINE
  8
0
 62
     0
 10
13.5254
 20
36.5608
 30
0.0
 11
14.3509
 21
36.5608
 31
0.0
  0
LINE
  8
0
 62
     0
 10
14.3509
 20
36.5608
 30
0.0
 11
14.3509
 21
30.2907
 31
0.0
  0
LINE
  8
0
 62
     0
 10
14.3509
 20
30.2907
 30
0.0
 11
16.0748
 21
30.2907
 31
0.0
  0
LINE
  8
0
 62
     0
 10
16.0748
 20
30.2907
 30
0.0
 11
16.0748
 21
29.3109
 31
0.0
  0
LINE
  8
0
 62
     0
 10
16.0748
 20
29.3109
 30
0.0
 11
19.276
 21
29.3109
 31
0.0
  0
LINE
  8
0
 62
     0
 10
19.276
 20
29.3109
 30
0.0
 11
19.276
 21
30.2907
 31
0.0
  0
LINE
  8
0
 62
     0
 10
19.276
 20
30.2907
 30
0.0
 11
20.9999
 21
30.2907
 31
0.0
  0
LINE
  8
0
 62
     0
 10
20.9999
 20
30.2907
 30
0.0
 11
20.9999
 21
34.761
 31
0.0
  0
LINE
  8
0
 62
     0
 10
20.9999
 20
34.761
 30
0.0
 11
22.626
 21
34.761
 31
0.0
  0
LINE
  8
0
 62
     0
 10
22.626
 20
34.761
 30
0.0
 11
22.626
 21
30.0605
 31
0.0
  0
LINE
  8
0
 62
     0
 10
22.626
 20
30.0605
 30
0.0
 11
36.5248
 21
30.0605
 31
0.0
  0
LINE
  8
0
 62
     0
 10
36.5248
 20
30.0605
 30
0.0
 11
36.5248
 21
34.761
 31
0.0
  0
LINE
  8
0
 62
     0
 10
36.5248
 20
34.761
 30
0.0
 11
38.1512
 21
34.761
 31
0.0
  0
LINE
  8
0
 62
     0
 10
38.1512
 20
34.761
 30
0.0
 11
38.1512
 21
30.2907
 31
0.0
  0
LINE
  8
0
 62
     0
 10
38.1512
 20
30.2907
 30
0.0
 11
39.8748
 21
30.2907
 31
0.0
  0
LINE
  8
0
 62
     0
 10
39.8748
 20
30.2907
 30
0.0
 11
39.8748
 21
29.3109
 31
0.0
  0
LINE
  8
0
 62
     0
 10
39.8748
 20
29.3109
 30
0.0
 11
43.0759
 21
29.3109
 31
0.0
  0
LINE
  8
0
 62
     0
 10
43.0759
 20
29.3109
 30
0.0
 11
43.0759
 21
30.2907
 31
0.0
  0
LINE
  8
0
 62
     0
 10
43.0759
 20
30.2907
 30
0.0
 11
44.8
 21
30.2907
 31
0.0
  0
LINE
  8
0
 62
     0
 10
44.8
 20
30.2907
 30
0.0
 11
44.8
 21
36.5608
 31
0.0
  0
LINE
  8
0
 62
     0
 10
44.8
 20
36.5608
 30
0.0
 11
45.6255
 21
36.5608
 31
0.0
  0
LINE
  8
0
 62
     0
 10
45.6255
 20
36.5608
 30
0.0
 11
45.6255
 21
39.2617
 31
0.0
  0
LINE
  8
0
 62
     0
 10
45.6255
 20
39.2617
 30
0.0
 11
44.8
 21
39.2617
 31
0.0
  0
LINE
  8
0
 62
     0
 10
44.8
 20
39.2617
 30
0.0
 11
44.8
 21
42.4917
 31
0.0
  0
LINE
  8
0
 62
     0
 10
44.8
 20
42.4917
 30
0.0
 11
43.0759
 21
42.4917
 31
0.0
  0
LINE
  8
0
 62
     0
 10
43.0759
 20
42.4917
 30
0.0
 11
43.0759
 21
43.4125
 31
0.0
  0
LINE
  8
0
 62
     0
 10
43.0759
 20
43.4125
 30
0.0
 11
39.8748
 21
43.4125
 31
0.0
  0
LINE
  8
0
 62
     0
 10
39.8748
 20
43.4125
 30
0.0
 11
39.8748
 21
42.4917
 31
0.0
  0
LINE
  8
0
 62
     0
 10
39.8748
 20
42.4917
 30
0.0
 11
38.1512
 21
42.4917
 31
0.0
  0
LINE
  8
0
 62
     0
 10
38.1512
 20
42.4917
 30
0.0
 11
38.1512
 21
39.2617
 31
0.0
  0
LINE
  8
0
 62
     0
 10
38.1512
 20
39.2617
 30
0.0
 11
36.5248
 21
39.2617
 31
0.0
  0
LINE
  8
0
 62
     0
 10
36.5248
 20
39.2617
 30
0.0
 11
36.5248
 21
43.9621
 31
0.0
  0
LINE
  8
0
 62
     0
 10
36.5248
 20
43.9621
 30
0.0
 11
22.626
 21
43.9621
 31
0.0
  0
LINE
  8
0
 62
     0
 10
53.5809
 20
43.9621
 30
0.0
 11
67.4811
 21
43.9621
 31
0.0
  0
LINE
  8
0
 62
     0
 10
67.4811
 20
43.9621
 30
0.0
 11
67.4811
 21
30.0605
 31
0.0
  0
LINE
  8
0
 62
     0
 10
67.4811
 20
30.0605
 30
0.0
 11
53.5809
 21
30.0605
 31
0.0
  0
LINE
  8
0
 62
     0
 10
53.5809
 20
30.0605
 30
0.0
 11
53.5809
 21
43.9621
 31
0.0
  0
LINE
  8
0
 62
     0
 10
72.6309
 20
43.9621
 30
0.0
 11
86.5311
 21
43.9621
 31
0.0
  0
LINE
  8
0
 62
     0
 10
86.5311
 20
43.9621
 30
0.0
 11
86.5311
 21
30.0605
 31
0.0
  0
LINE
  8
0
 62
     0
 10
86.5311
 20
30.0605
 30
0.0
 11
72.6309
 21
30.0605
 31
0.0
  0
LINE
  8
0
 62
     0
 10
72.6309
 20
30.0605
 30
0.0
 11
72.6309
 21
43.9621
 31
0.0
  0
LINE
  8
0
 62
     0
 10
91.6809
 20
43.9621
 30
0.0
 11
105.581
 21
43.9621
 31
0.0
  0
LINE
  8
0
 62
     0
 10
105.581
 20
43.9621
 30
0.0
 11
105.581
 21
30.0605
 31
0.0
  0
LINE
  8
0
 62
     0
 10
105.581
 20
30.0605
 30
0.0
 11
91.6809
 21
30.0605
 31
0.0
  0
LINE
  8
0
 62
     0
 10
91.6809
 20
30.0605
 30
0.0
 11
91.6809
 21
43.9621
 31
0.0
  0
LINE
  8
0
 62
     0
 10
110.731
 20
43.9621
 30
0.0
 11
124.631
 21
43.9621
 31
0.0
  0
LINE
  8
0
 62
     0
 10
124.631
 20
43.9621
 30
0.0
 11
124.631
 21
30.0605
 31
0.0
  0
LINE
  8
0
 62
     0
 10
124.631
 20
30.0605
 30
0.0
 11
110.731
 21
30.0605
 31
0.0
  0
LINE
  8
0
 62
     0
 10
110.731
 20
30.0605
 30
0.0
 11
110.731
 21
43.9621
 31
0.0
  0
LINE
  8
0
 62
     0
 10
129.781
 20
43.9621
 30
0.0
 11
143.681
 21
43.9621
 31
0.0
  0
LINE
  8
0
 62
     0
 10
143.681
 20
43.9621
 30
0.0
 11
143.681
 21
30.0605
 31
0.0
  0
LINE
  8
0
 62
     0
 10
143.681
 20
30.0605
 30
0.0
 11
129.781
 21
30.0605
 31
0.0
  0
LINE
  8
0
 62
     0
 10
129.781
 20
30.0605
 30
0.0
 11
129.781
 21
43.9621
 31
0.0
  0
LINE
  8
0
 62
     0
 10
148.831
 20
43.9621
 30
0.0
 11
162.731
 21
43.9621
 31
0.0
  0
LINE
  8
0
 62
     0
 10
162.731
 20
43.9621
 30
0.0
 11
162.731
 21
30.0605
 31
0.0
  0
LINE
  8
0
 62
     0
 10
162.731
 20
30.0605
 30
0.0
 11
148.831
 21
30.0605
 31
0.0
  0
LINE
  8
0
 62
     0
 10
148.831
 20
30.0605
 30
0.0
 11
148.831
 21
43.9621
 31
0.0
  0
LINE
  8
0
 62
     0
 10
167.881
 20
43.9621
 30
0.0
 11
181.781
 21
43.9621
 31
0.0
  0
LINE
  8
0
 62
     0
 10
181.781
 20
43.9621
 30
0.0
 11
181.781
 21
30.0605
 31
0.0
  0
LINE
  8
0
 62
     0
 10
181.781
 20
30.0605
 30
0.0
 11
167.881
 21
30.0605
 31
0.0
  0
LINE
  8
0
 62
     0
 10
167.881
 20
30.0605
 30
0.0
 11
167.881
 21
43.9621
 31
0.0
  0
LINE
  8
0
 62
     0
 10
186.931
 20
43.9621
 30
0.0
 11
200.831
 21
43.9621
 31
0.0
  0
LINE
  8
0
 62
     0
 10
200.831
 20
43.9621
 30
0.0
 11
200.831
 21
30.0605
 31
0.0
  0
LINE
  8
0
 62
     0
 10
200.831
 20
30.0605
 30
0.0
 11
186.931
 21
30.0605
 31
0.0
  0
LINE
  8
0
 62
     0
 10
186.931
 20
30.0605
 30
0.0
 11
186.931
 21
43.9621
 31
0.0
  0
LINE
  8
0
 62
     0
 10
205.981
 20
43.9621
 30
0.0
 11
219.881
 21
43.9621
 31
0.0
  0
LINE
  8
0
 62
     0
 10
219.881
 20
43.9621
 30
0.0
 11
219.881
 21
30.0605
 31
0.0
  0
LINE
  8
0
 62
     0
 10
219.881
 20
30.0605
 30
0.0
 11
205.981
 21
30.0605
 31
0.0
  0
LINE
  8
0
 62
     0
 10
205.981
 20
30.0605
 30
0.0
 11
205.981
 21
43.9621
 31
0.0
  0
LINE
  8
0
 62
     0
 10
225.031
 20
43.9621
 30
0.0
 11
238.931
 21
43.9621
 31
0.0
  0
LINE
  8
0
 62
     0
 10
238.931
 20
43.9621
 30
0.0
 11
238.931
 21
30.0605
 31
0.0
  0
LINE
  8
0
 62
     0
 10
238.931
 20
30.0605
 30
0.0
 11
225.031
 21
30.0605
 31
0.0
  0
LINE
  8
0
 62
     0
 10
225.031
 20
30.0605
 30
0.0
 11
225.031
 21
43.9621
 31
0.0
  0
LINE
  8
0
 62
     0
 10
251.225
 20
43.9621
 30
0.0
 11
265.125
 21
43.9621
 31
0.0
  0
LINE
  8
0
 62
     0
 10
265.125
 20
43.9621
 30
0.0
 11
265.125
 21
30.0605
 31
0.0
  0
LINE
  8
0
 62
     0
 10
265.125
 20
30.0605
 30
0.0
 11
251.225
 21
30.0605
 31
0.0
  0
LINE
  8
0
 62
     0
 10
251.225
 20
30.0605
 30
0.0
 11
251.225
 21
43.9621
 31
0.0
  0
LINE
  8
0
 62
     0
 10
277.42
 20
43.9621
 30
0.0
 11
291.32
 21
43.9621
 31
0.0
  0
LINE
  8
0
 62
     0
 10
291.32
 20
43.9621
 30
0.0
 11
291.32
 21
30.0605
 31
0.0
  0
LINE
  8
0
 62
     0
 10
291.32
 20
30.0605
 30
0.0
 11
277.42
 21
30.0605
 31
0.0
  0
LINE
  8
0
 62
     0
 10
277.42
 20
30.0605
 30
0.0
 11
277.42
 21
43.9621
 31
0.0
  0
LINE
  8
0
 62
     0
 10
296.47
 20
43.9621
 30
0.0
 11
310.37
 21
43.9621
 31
0.0
  0
LINE
  8
0
 62
     0
 10
310.37
 20
43.9621
 30
0.0
 11
310.37
 21
30.0605
 31
0.0
  0
LINE
  8
0
 62
     0
 10
310.37
 20
30.0605
 30
0.0
 11
296.47
 21
30.0605
 31
0.0
  0
LINE
  8
0
 62
     0
 10
296.47
 20
30.0605
 30
0.0
 11
296.47
 21
43.9621
 31
0.0
  0
LINE
  8
0
 62
     0
 10
265.512
 20
63.0121
 30
0.0
 11
265.512
 21
58.3117
 31
0.0
  0
LINE
  8
0
 62
     0
 10
265.512
 20
58.3117
 30
0.0
 11
263.887
 21
58.3117
 31
0.0
  0
LINE
  8
0
 62
     0
 10
263.887
 20
58.3117
 30
0.0
 11
263.887
 21
61.5417
 31
0.0
  0
LINE
  8
0
 62
     0
 10
263.887
 20
61.5417
 30
0.0
 11
262.162
 21
61.5417
 31
0.0
  0
LINE
  8
0
 62
     0
 10
262.162
 20
61.5417
 30
0.0
 11
262.162
 21
62.4611
 31
0.0
  0
LINE
  8
0
 62
     0
 10
262.162
 20
62.4611
 30
0.0
 11
258.962
 21
62.4611
 31
0.0
  0
LINE
  8
0
 62
     0
 10
258.962
 20
62.4611
 30
0.0
 11
258.962
 21
61.5417
 31
0.0
  0
LINE
  8
0
 62
     0
 10
258.962
 20
61.5417
 30
0.0
 11
257.237
 21
61.5417
 31
0.0
  0
LINE
  8
0
 62
     0
 10
257.237
 20
61.5417
 30
0.0
 11
257.237
 21
58.3117
 31
0.0
  0
LINE
  8
0
 62
     0
 10
257.237
 20
58.3117
 30
0.0
 11
256.412
 21
58.3117
 31
0.0
  0
LINE
  8
0
 62
     0
 10
256.412
 20
58.3117
 30
0.0
 11
256.412
 21
55.6108
 31
0.0
  0
LINE
  8
0
 62
     0
 10
256.412
 20
55.6108
 30
0.0
 11
257.237
 21
55.6108
 31
0.0
  0
LINE
  8
0
 62
     0
 10
257.237
 20
55.6108
 30
0.0
 11
257.237
 21
49.3406
 31
0.0
  0
LINE
  8
0
 62
     0
 10
257.237
 20
49.3406
 30
0.0
 11
258.962
 21
49.3406
 31
0.0
  0
LINE
  8
0
 62
     0
 10
258.962
 20
49.3406
 30
0.0
 11
258.962
 21
48.3609
 31
0.0
  0
LINE
  8
0
 62
     0
 10
258.962
 20
48.3609
 30
0.0
 11
262.162
 21
48.3609
 31
0.0
  0
LINE
  8
0
 62
     0
 10
262.162
 20
48.3609
 30
0.0
 11
262.162
 21
49.3406
 31
0.0
  0
LINE
  8
0
 62
     0
 10
262.162
 20
49.3406
 30
0.0
 11
263.887
 21
49.3406
 31
0.0
  0
LINE
  8
0
 62
     0
 10
263.887
 20
49.3406
 30
0.0
 11
263.887
 21
53.811
 31
0.0
  0
LINE
  8
0
 62
     0
 10
263.887
 20
53.811
 30
0.0
 11
265.512
 21
53.811
 31
0.0
  0
LINE
  8
0
 62
     0
 10
265.512
 20
53.811
 30
0.0
 11
265.512
 21
49.1105
 31
0.0
  0
LINE
  8
0
 62
     0
 10
265.512
 20
49.1105
 30
0.0
 11
279.412
 21
49.1105
 31
0.0
  0
LINE
  8
0
 62
     0
 10
279.412
 20
49.1105
 30
0.0
 11
279.412
 21
53.811
 31
0.0
  0
LINE
  8
0
 62
     0
 10
279.412
 20
53.811
 30
0.0
 11
281.037
 21
53.811
 31
0.0
  0
LINE
  8
0
 62
     0
 10
281.037
 20
53.811
 30
0.0
 11
281.037
 21
49.3406
 31
0.0
  0
LINE
  8
0
 62
     0
 10
281.037
 20
49.3406
 30
0.0
 11
282.762
 21
49.3406
 31
0.0
  0
LINE
  8
0
 62
     0
 10
282.762
 20
49.3406
 30
0.0
 11
282.762
 21
48.3609
 31
0.0
  0
LINE
  8
0
 62
     0
 10
282.762
 20
48.3609
 30
0.0
 11
285.962
 21
48.3609
 31
0.0
  0
LINE
  8
0
 62
     0
 10
285.962
 20
48.3609
 30
0.0
 11
285.962
 21
49.3406
 31
0.0
  0
LINE
  8
0
 62
     0
 10
285.962
 20
49.3406
 30
0.0
 11
287.687
 21
49.3406
 31
0.0
  0
LINE
  8
0
 62
     0
 10
287.687
 20
49.3406
 30
0.0
 11
287.687
 21
55.6108
 31
0.0
  0
LINE
  8
0
 62
     0
 10
287.687
 20
55.6108
 30
0.0
 11
288.513
 21
55.6108
 31
0.0
  0
LINE
  8
0
 62
     0
 10
288.513
 20
55.6108
 30
0.0
 11
288.513
 21
58.3117
 31
0.0
  0
LINE
  8
0
 62
     0
 10
288.513
 20
58.3117
 30
0.0
 11
287.687
 21
58.3117
 31
0.0
  0
LINE
  8
0
 62
     0
 10
287.687
 20
58.3117
 30
0.0
 11
287.687
 21
61.5417
 31
0.0
  0
LINE
  8
0
 62
     0
 10
287.687
 20
61.5417
 30
0.0
 11
285.962
 21
61.5417
 31
0.0
  0
LINE
  8
0
 62
     0
 10
285.962
 20
61.5417
 30
0.0
 11
285.962
 21
62.4611
 31
0.0
  0
LINE
  8
0
 62
     0
 10
285.962
 20
62.4611
 30
0.0
 11
282.762
 21
62.4611
 31
0.0
  0
LINE
  8
0
 62
     0
 10
282.762
 20
62.4611
 30
0.0
 11
282.762
 21
61.5417
 31
0.0
  0
LINE
  8
0
 62
     0
 10
282.762
 20
61.5417
 30
0.0
 11
281.037
 21
61.5417
 31
0.0
  0
LINE
  8
0
 62
     0
 10
281.037
 20
61.5417
 30
0.0
 11
281.037
 21
58.3117
 31
0.0
  0
LINE
  8
0
 62
     0
 10
281.037
 20
58.3117
 30
0.0
 11
279.412
 21
58.3117
 31
0.0
  0
LINE
  8
0
 62
     0
 10
279.412
 20
58.3117
 30
0.0
 11
279.412
 21
63.0121
 31
0.0
  0
LINE
  8
0
 62
     0
 10
279.412
 20
63.0121
 30
0.0
 11
265.512
 21
63.0121
 31
0.0
  0
LINE
  8
0
 62
     0
 10
17.8621
 20
63.0121
 30
0.0
 11
31.7624
 21
63.0121
 31
0.0
  0
LINE
  8
0
 62
     0
 10
31.7624
 20
63.0121
 30
0.0
 11
31.7624
 21
49.1105
 31
0.0
  0
LINE
  8
0
 62
     0
 10
31.7624
 20
49.1105
 30
0.0
 11
17.8621
 21
49.1105
 31
0.0
  0
LINE
  8
0
 62
     0
 10
17.8621
 20
49.1105
 30
0.0
 11
17.8621
 21
63.0121
 31
0.0
  0
LINE
  8
0
 62
     0
 10
44.0559
 20
63.0121
 30
0.0
 11
57.9561
 21
63.0121
 31
0.0
  0
LINE
  8
0
 62
     0
 10
57.9561
 20
63.0121
 30
0.0
 11
57.9561
 21
49.1105
 31
0.0
  0
LINE
  8
0
 62
     0
 10
57.9561
 20
49.1105
 30
0.0
 11
44.0559
 21
49.1105
 31
0.0
  0
LINE
  8
0
 62
     0
 10
44.0559
 20
49.1105
 30
0.0
 11
44.0559
 21
63.0121
 31
0.0
  0
LINE
  8
0
 62
     0
 10
63.1059
 20
63.0121
 30
0.0
 11
77.0061
 21
63.0121
 31
0.0
  0
LINE
  8
0
 62
     0
 10
77.0061
 20
63.0121
 30
0.0
 11
77.0061
 21
49.1105
 31
0.0
  0
LINE
  8
0
 62
     0
 10
77.0061
 20
49.1105
 30
0.0
 11
63.1059
 21
49.1105
 31
0.0
  0
LINE
  8
0
 62
     0
 10
63.1059
 20
49.1105
 30
0.0
 11
63.1059
 21
63.0121
 31
0.0
  0
LINE
  8
0
 62
     0
 10
82.1559
 20
63.0121
 30
0.0
 11
96.0561
 21
63.0121
 31
0.0
  0
LINE
  8
0
 62
     0
 10
96.0561
 20
63.0121
 30
0.0
 11
96.0561
 21
49.1105
 31
0.0
  0
LINE
  8
0
 62
     0
 10
96.0561
 20
49.1105
 30
0.0
 11
82.1559
 21
49.1105
 31
0.0
  0
LINE
  8
0
 62
     0
 10
82.1559
 20
49.1105
 30
0.0
 11
82.1559
 21
63.0121
 31
0.0
  0
LINE
  8
0
 62
     0
 10
101.206
 20
63.0121
 30
0.0
 11
115.106
 21
63.0121
 31
0.0
  0
LINE
  8
0
 62
     0
 10
115.106
 20
63.0121
 30
0.0
 11
115.106
 21
49.1105
 31
0.0
  0
LINE
  8
0
 62
     0
 10
115.106
 20
49.1105
 30
0.0
 11
101.206
 21
49.1105
 31
0.0
  0
LINE
  8
0
 62
     0
 10
101.206
 20
49.1105
 30
0.0
 11
101.206
 21
63.0121
 31
0.0
  0
LINE
  8
0
 62
     0
 10
120.256
 20
63.0121
 30
0.0
 11
134.156
 21
63.0121
 31
0.0
  0
LINE
  8
0
 62
     0
 10
134.156
 20
63.0121
 30
0.0
 11
134.156
 21
49.1105
 31
0.0
  0
LINE
  8
0
 62
     0
 10
134.156
 20
49.1105
 30
0.0
 11
120.256
 21
49.1105
 31
0.0
  0
LINE
  8
0
 62
     0
 10
120.256
 20
49.1105
 30
0.0
 11
120.256
 21
63.0121
 31
0.0
  0
LINE
  8
0
 62
     0
 10
139.306
 20
63.0121
 30
0.0
 11
153.206
 21
63.0121
 31
0.0
  0
LINE
  8
0
 62
     0
 10
153.206
 20
63.0121
 30
0.0
 11
153.206
 21
49.1105
 31
0.0
  0
LINE
  8
0
 62
     0
 10
153.206
 20
49.1105
 30
0.0
 11
139.306
 21
49.1105
 31
0.0
  0
LINE
  8
0
 62
     0
 10
139.306
 20
49.1105
 30
0.0
 11
139.306
 21
63.0121
 31
0.0
  0
LINE
  8
0
 62
     0
 10
158.356
 20
63.0121
 30
0.0
 11
172.256
 21
63.0121
 31
0.0
  0
LINE
  8
0
 62
     0
 10
172.256
 20
63.0121
 30
0.0
 11
172.256
 21
49.1105
 31
0.0
  0
LINE
  8
0
 62
     0
 10
172.256
 20
49.1105
 30
0.0
 11
158.356
 21
49.1105
 31
0.0
  0
LINE
  8
0
 62
     0
 10
158.356
 20
49.1105
 30
0.0
 11
158.356
 21
63.0121
 31
0.0
  0
LINE
  8
0
 62
     0
 10
177.406
 20
63.0121
 30
0.0
 11
191.306
 21
63.0121
 31
0.0
  0
LINE
  8
0
 62
     0
 10
191.306
 20
63.0121
 30
0.0
 11
191.306
 21
49.1105
 31
0.0
  0
LINE
  8
0
 62
     0
 10
191.306
 20
49.1105
 30
0.0
 11
177.406
 21
49.1105
 31
0.0
  0
LINE
  8
0
 62
     0
 10
177.406
 20
49.1105
 30
0.0
 11
177.406
 21
63.0121
 31
0.0
  0
LINE
  8
0
 62
     0
 10
196.456
 20
63.0121
 30
0.0
 11
210.356
 21
63.0121
 31
0.0
  0
LINE
  8
0
 62
     0
 10
210.356
 20
63.0121
 30
0.0
 11
210.356
 21
49.1105
 31
0.0
  0
LINE
  8
0
 62
     0
 10
210.356
 20
49.1105
 30
0.0
 11
196.456
 21
49.1105
 31
0.0
  0
LINE
  8
0
 62
     0
 10
196.456
 20
49.1105
 30
0.0
 11
196.456
 21
63.0121
 31
0.0
  0
LINE
  8
0
 62
     0
 10
215.506
 20
63.0121
 30
0.0
 11
229.406
 21
63.0121
 31
0.0
  0
LINE
  8
0
 62
     0
 10
229.406
 20
63.0121
 30
0.0
 11
229.406
 21
49.1105
 31
0.0
  0
LINE
  8
0
 62
     0
 10
229.406
 20
49.1105
 30
0.0
 11
215.506
 21
49.1105
 31
0.0
  0
LINE
  8
0
 62
     0
 10
215.506
 20
49.1105
 30
0.0
 11
215.506
 21
63.0121
 31
0.0
  0
LINE
  8
0
 62
     0
 10
234.556
 20
63.0121
 30
0.0
 11
248.456
 21
63.0121
 31
0.0
  0
LINE
  8
0
 62
     0
 10
248.456
 20
63.0121
 30
0.0
 11
248.456
 21
49.1105
 31
0.0
  0
LINE
  8
0
 62
     0
 10
248.456
 20
49.1105
 30
0.0
 11
234.556
 21
49.1105
 31
0.0
  0
LINE
  8
0
 62
     0
 10
234.556
 20
49.1105
 30
0.0
 11
234.556
 21
63.0121
 31
0.0
  0
LINE
  8
0
 62
     0
 10
296.47
 20
63.0121
 30
0.0
 11
310.37
 21
63.0121
 31
0.0
  0
LINE
  8
0
 62
     0
 10
310.37
 20
63.0121
 30
0.0
 11
310.37
 21
49.1105
 31
0.0
  0
LINE
  8
0
 62
     0
 10
310.37
 20
49.1105
 30
0.0
 11
296.47
 21
49.1105
 31
0.0
  0
LINE
  8
0
 62
     0
 10
296.47
 20
49.1105
 30
0.0
 11
296.47
 21
63.0121
 31
0.0
  0
LINE
  8
0
 62
     0
 10
15.4809
 20
82.0607
 30
0.0
 11
29.3812
 21
82.0607
 31
0.0
  0
LINE
  8
0
 62
     0
 10
29.3812
 20
82.0607
 30
0.0
 11
29.3812
 21
68.1605
 31
0.0
  0
LINE
  8
0
 62
     0
 10
29.3812
 20
68.1605
 30
0.0
 11
15.4809
 21
68.1605
 31
0.0
  0
LINE
  8
0
 62
     0
 10
15.4809
 20
68.1605
 30
0.0
 11
15.4809
 21
82.0607
 31
0.0
  0
LINE
  8
0
 62
     0
 10
39.2949
 20
82.0607
 30
0.0
 11
53.195
 21
82.0607
 31
0.0
  0
LINE
  8
0
 62
     0
 10
53.195
 20
82.0607
 30
0.0
 11
53.195
 21
68.1605
 31
0.0
  0
LINE
  8
0
 62
     0
 10
53.195
 20
68.1605
 30
0.0
 11
39.2949
 21
68.1605
 31
0.0
  0
LINE
  8
0
 62
     0
 10
39.2949
 20
68.1605
 30
0.0
 11
39.2949
 21
82.0607
 31
0.0
  0
LINE
  8
0
 62
     0
 10
58.3449
 20
82.0607
 30
0.0
 11
72.245
 21
82.0607
 31
0.0
  0
LINE
  8
0
 62
     0
 10
72.245
 20
82.0607
 30
0.0
 11
72.245
 21
68.1605
 31
0.0
  0
LINE
  8
0
 62
     0
 10
72.245
 20
68.1605
 30
0.0
 11
58.3449
 21
68.1605
 31
0.0
  0
LINE
  8
0
 62
     0
 10
58.3449
 20
68.1605
 30
0.0
 11
58.3449
 21
82.0607
 31
0.0
  0
LINE
  8
0
 62
     0
 10
77.3949
 20
82.0607
 30
0.0
 11
91.295
 21
82.0607
 31
0.0
  0
LINE
  8
0
 62
     0
 10
91.295
 20
82.0607
 30
0.0
 11
91.295
 21
68.1605
 31
0.0
  0
LINE
  8
0
 62
     0
 10
91.295
 20
68.1605
 30
0.0
 11
77.3949
 21
68.1605
 31
0.0
  0
LINE
  8
0
 62
     0
 10
77.3949
 20
68.1605
 30
0.0
 11
77.3949
 21
82.0607
 31
0.0
  0
LINE
  8
0
 62
     0
 10
96.4449
 20
82.0607
 30
0.0
 11
110.345
 21
82.0607
 31
0.0
  0
LINE
  8
0
 62
     0
 10
110.345
 20
82.0607
 30
0.0
 11
110.345
 21
68.1605
 31
0.0
  0
LINE
  8
0
 62
     0
 10
110.345
 20
68.1605
 30
0.0
 11
96.4449
 21
68.1605
 31
0.0
  0
LINE
  8
0
 62
     0
 10
96.4449
 20
68.1605
 30
0.0
 11
96.4449
 21
82.0607
 31
0.0
  0
LINE
  8
0
 62
     0
 10
115.493
 20
82.0607
 30
0.0
 11
129.394
 21
82.0607
 31
0.0
  0
LINE
  8
0
 62
     0
 10
129.394
 20
82.0607
 30
0.0
 11
129.394
 21
68.1605
 31
0.0
  0
LINE
  8
0
 62
     0
 10
129.394
 20
68.1605
 30
0.0
 11
115.493
 21
68.1605
 31
0.0
  0
LINE
  8
0
 62
     0
 10
115.493
 20
68.1605
 30
0.0
 11
115.493
 21
82.0607
 31
0.0
  0
LINE
  8
0
 62
     0
 10
134.545
 20
82.0607
 30
0.0
 11
148.445
 21
82.0607
 31
0.0
  0
LINE
  8
0
 62
     0
 10
148.445
 20
82.0607
 30
0.0
 11
148.445
 21
68.1605
 31
0.0
  0
LINE
  8
0
 62
     0
 10
148.445
 20
68.1605
 30
0.0
 11
134.545
 21
68.1605
 31
0.0
  0
LINE
  8
0
 62
     0
 10
134.545
 20
68.1605
 30
0.0
 11
134.545
 21
82.0607
 31
0.0
  0
LINE
  8
0
 62
     0
 10
153.595
 20
82.0607
 30
0.0
 11
167.495
 21
82.0607
 31
0.0
  0
LINE
  8
0
 62
     0
 10
167.495
 20
82.0607
 30
0.0
 11
167.495
 21
68.1605
 31
0.0
  0
LINE
  8
0
 62
     0
 10
167.495
 20
68.1605
 30
0.0
 11
153.595
 21
68.1605
 31
0.0
  0
LINE
  8
0
 62
     0
 10
153.595
 20
68.1605
 30
0.0
 11
153.595
 21
82.0607
 31
0.0
  0
LINE
  8
0
 62
     0
 10
172.645
 20
82.0607
 30
0.0
 11
186.545
 21
82.0607
 31
0.0
  0
LINE
  8
0
 62
     0
 10
186.545
 20
82.0607
 30
0.0
 11
186.545
 21
68.1605
 31
0.0
  0
LINE
  8
0
 62
     0
 10
186.545
 20
68.1605
 30
0.0
 11
172.645
 21
68.1605
 31
0.0
  0
LINE
  8
0
 62
     0
 10
172.645
 20
68.1605
 30
0.0
 11
172.645
 21
82.0607
 31
0.0
  0
LINE
  8
0
 62
     0
 10
191.695
 20
82.0607
 30
0.0
 11
205.595
 21
82.0607
 31
0.0
  0
LINE
  8
0
 62
     0
 10
205.595
 20
82.0607
 30
0.0
 11
205.595
 21
68.1605
 31
0.0
  0
LINE
  8
0
 62
     0
 10
205.595
 20
68.1605
 30
0.0
 11
191.695
 21
68.1605
 31
0.0
  0
LINE
  8
0
 62
     0
 10
191.695
 20
68.1605
 30
0.0
 11
191.695
 21
82.0607
 31
0.0
  0
LINE
  8
0
 62
     0
 10
210.745
 20
82.0607
 30
0.0
 11
224.645
 21
82.0607
 31
0.0
  0
LINE
  8
0
 62
     0
 10
224.645
 20
82.0607
 30
0.0
 11
224.645
 21
68.1605
 31
0.0
  0
LINE
  8
0
 62
     0
 10
224.645
 20
68.1605
 30
0.0
 11
210.745
 21
68.1605
 31
0.0
  0
LINE
  8
0
 62
     0
 10
210.745
 20
68.1605
 30
0.0
 11
210.745
 21
82.0607
 31
0.0
  0
LINE
  8
0
 62
     0
 10
229.795
 20
82.0607
 30
0.0
 11
243.695
 21
82.0607
 31
0.0
  0
LINE
  8
0
 62
     0
 10
243.695
 20
82.0607
 30
0.0
 11
243.695
 21
68.1605
 31
0.0
  0
LINE
  8
0
 62
     0
 10
243.695
 20
68.1605
 30
0.0
 11
229.795
 21
68.1605
 31
0.0
  0
LINE
  8
0
 62
     0
 10
229.795
 20
68.1605
 30
0.0
 11
229.795
 21
82.0607
 31
0.0
  0
LINE
  8
0
 62
     0
 10
248.845
 20
82.0607
 30
0.0
 11
262.745
 21
82.0607
 31
0.0
  0
LINE
  8
0
 62
     0
 10
262.745
 20
82.0607
 30
0.0
 11
262.745
 21
68.1605
 31
0.0
  0
LINE
  8
0
 62
     0
 10
262.745
 20
68.1605
 30
0.0
 11
248.845
 21
68.1605
 31
0.0
  0
LINE
  8
0
 62
     0
 10
248.845
 20
68.1605
 30
0.0
 11
248.845
 21
82.0607
 31
0.0
  0
LINE
  8
0
 62
     0
 10
272.656
 20
82.0607
 30
0.0
 11
286.556
 21
82.0607
 31
0.0
  0
LINE
  8
0
 62
     0
 10
286.556
 20
82.0607
 30
0.0
 11
286.556
 21
68.1605
 31
0.0
  0
LINE
  8
0
 62
     0
 10
286.556
 20
68.1605
 30
0.0
 11
272.656
 21
68.1605
 31
0.0
  0
LINE
  8
0
 62
     0
 10
272.656
 20
68.1605
 30
0.0
 11
272.656
 21
82.0607
 31
0.0
  0
LINE
  8
0
 62
     0
 10
296.47
 20
82.0607
 30
0.0
 11
310.37
 21
82.0607
 31
0.0
  0
LINE
  8
0
 62
     0
 10
310.37
 20
82.0607
 30
0.0
 11
310.37
 21
68.1605
 31
0.0
  0
LINE
  8
0
 62
     0
 10
310.37
 20
68.1605
 30
0.0
 11
296.47
 21
68.1605
 31
0.0
  0
LINE
  8
0
 62
     0
 10
296.47
 20
68.1605
 30
0.0
 11
296.47
 21
82.0607
 31
0.0
  0
LINE
  8
0
 62
     0
 10
267.895
 20
101.111
 30
0.0
 11
267.895
 21
96.4117
 31
0.0
  0
LINE
  8
0
 62
     0
 10
267.895
 20
96.4117
 30
0.0
 11
266.27
 21
96.4117
 31
0.0
  0
LINE
  8
0
 62
     0
 10
266.27
 20
96.4117
 30
0.0
 11
266.27
 21
99.6403
 31
0.0
  0
LINE
  8
0
 62
     0
 10
266.27
 20
99.6403
 30
0.0
 11
264.545
 21
99.6403
 31
0.0
  0
LINE
  8
0
 62
     0
 10
264.545
 20
99.6403
 30
0.0
 11
264.545
 21
100.561
 31
0.0
  0
LINE
  8
0
 62
     0
 10
264.545
 20
100.561
 30
0.0
 11
261.345
 21
100.561
 31
0.0
  0
LINE
  8
0
 62
     0
 10
261.345
 20
100.561
 30
0.0
 11
261.345
 21
99.6403
 31
0.0
  0
LINE
  8
0
 62
     0
 10
261.345
 20
99.6403
 30
0.0
 11
259.62
 21
99.6403
 31
0.0
  0
LINE
  8
0
 62
     0
 10
259.62
 20
99.6403
 30
0.0
 11
259.62
 21
96.4117
 31
0.0
  0
LINE
  8
0
 62
     0
 10
259.62
 20
96.4117
 30
0.0
 11
258.794
 21
96.4117
 31
0.0
  0
LINE
  8
0
 62
     0
 10
258.794
 20
96.4117
 30
0.0
 11
258.794
 21
93.7108
 31
0.0
  0
LINE
  8
0
 62
     0
 10
258.794
 20
93.7108
 30
0.0
 11
259.62
 21
93.7108
 31
0.0
  0
LINE
  8
0
 62
     0
 10
259.62
 20
93.7108
 30
0.0
 11
259.62
 21
87.4406
 31
0.0
  0
LINE
  8
0
 62
     0
 10
259.62
 20
87.4406
 30
0.0
 11
261.345
 21
87.4406
 31
0.0
  0
LINE
  8
0
 62
     0
 10
261.345
 20
87.4406
 30
0.0
 11
261.345
 21
86.4609
 31
0.0
  0
LINE
  8
0
 62
     0
 10
261.345
 20
86.4609
 30
0.0
 11
264.545
 21
86.4609
 31
0.0
  0
LINE
  8
0
 62
     0
 10
264.545
 20
86.4609
 30
0.0
 11
264.545
 21
87.4406
 31
0.0
  0
LINE
  8
0
 62
     0
 10
264.545
 20
87.4406
 30
0.0
 11
266.27
 21
87.4406
 31
0.0
  0
LINE
  8
0
 62
     0
 10
266.27
 20
87.4406
 30
0.0
 11
266.27
 21
91.911
 31
0.0
  0
LINE
  8
0
 62
     0
 10
266.27
 20
91.911
 30
0.0
 11
267.895
 21
91.911
 31
0.0
  0
LINE
  8
0
 62
     0
 10
267.895
 20
91.911
 30
0.0
 11
267.895
 21
87.2105
 31
0.0
  0
LINE
  8
0
 62
     0
 10
267.895
 20
87.2105
 30
0.0
 11
281.795
 21
87.2105
 31
0.0
  0
LINE
  8
0
 62
     0
 10
281.795
 20
87.2105
 30
0.0
 11
281.795
 21
91.911
 31
0.0
  0
LINE
  8
0
 62
     0
 10
281.795
 20
91.911
 30
0.0
 11
283.42
 21
91.911
 31
0.0
  0
LINE
  8
0
 62
     0
 10
283.42
 20
91.911
 30
0.0
 11
283.42
 21
87.4406
 31
0.0
  0
LINE
  8
0
 62
     0
 10
283.42
 20
87.4406
 30
0.0
 11
285.145
 21
87.4406
 31
0.0
  0
LINE
  8
0
 62
     0
 10
285.145
 20
87.4406
 30
0.0
 11
285.145
 21
86.4609
 31
0.0
  0
LINE
  8
0
 62
     0
 10
285.145
 20
86.4609
 30
0.0
 11
288.345
 21
86.4609
 31
0.0
  0
LINE
  8
0
 62
     0
 10
288.345
 20
86.4609
 30
0.0
 11
288.345
 21
87.4406
 31
0.0
  0
LINE
  8
0
 62
     0
 10
288.345
 20
87.4406
 30
0.0
 11
290.07
 21
87.4406
 31
0.0
  0
LINE
  8
0
 62
     0
 10
290.07
 20
87.4406
 30
0.0
 11
290.07
 21
93.7108
 31
0.0
  0
LINE
  8
0
 62
     0
 10
290.07
 20
93.7108
 30
0.0
 11
290.894
 21
93.7108
 31
0.0
  0
LINE
  8
0
 62
     0
 10
290.894
 20
93.7108
 30
0.0
 11
290.894
 21
96.4117
 31
0.0
  0
LINE
  8
0
 62
     0
 10
290.894
 20
96.4117
 30
0.0
 11
290.07
 21
96.4117
 31
0.0
  0
LINE
  8
0
 62
     0
 10
290.07
 20
96.4117
 30
0.0
 11
290.07
 21
99.6403
 31
0.0
  0
LINE
  8
0
 62
     0
 10
290.07
 20
99.6403
 30
0.0
 11
288.345
 21
99.6403
 31
0.0
  0
LINE
  8
0
 62
     0
 10
288.345
 20
99.6403
 30
0.0
 11
288.345
 21
100.561
 31
0.0
  0
LINE
  8
0
 62
     0
 10
288.345
 20
100.561
 30
0.0
 11
285.145
 21
100.561
 31
0.0
  0
LINE
  8
0
 62
     0
 10
285.145
 20
100.561
 30
0.0
 11
285.145
 21
99.6403
 31
0.0
  0
LINE
  8
0
 62
     0
 10
285.145
 20
99.6403
 30
0.0
 11
283.42
 21
99.6403
 31
0.0
  0
LINE
  8
0
 62
     0
 10
283.42
 20
99.6403
 30
0.0
 11
283.42
 21
96.4117
 31
0.0
  0
LINE
  8
0
 62
     0
 10
283.42
 20
96.4117
 30
0.0
 11
281.795
 21
96.4117
 31
0.0
  0
LINE
  8
0
 62
     0
 10
281.795
 20
96.4117
 30
0.0
 11
281.795
 21
101.111
 31
0.0
  0
LINE
  8
0
 62
     0
 10
281.795
 20
101.111
 30
0.0
 11
267.895
 21
101.111
 31
0.0
  0
LINE
  8
0
 62
     0
 10
10.7198
 20
101.111
 30
0.0
 11
24.62
 21
101.111
 31
0.0
  0
LINE
  8
0
 62
     0
 10
24.62
 20
101.111
 30
0.0
 11
24.62
 21
87.2105
 31
0.0
  0
LINE
  8
0
 62
     0
 10
24.62
 20
87.2105
 30
0.0
 11
10.7198
 21
87.2105
 31
0.0
  0
LINE
  8
0
 62
     0
 10
10.7198
 20
87.2105
 30
0.0
 11
10.7198
 21
101.111
 31
0.0
  0
LINE
  8
0
 62
     0
 10
29.7698
 20
101.111
 30
0.0
 11
43.67
 21
101.111
 31
0.0
  0
LINE
  8
0
 62
     0
 10
43.67
 20
101.111
 30
0.0
 11
43.67
 21
87.2105
 31
0.0
  0
LINE
  8
0
 62
     0
 10
43.67
 20
87.2105
 30
0.0
 11
29.7698
 21
87.2105
 31
0.0
  0
LINE
  8
0
 62
     0
 10
29.7698
 20
87.2105
 30
0.0
 11
29.7698
 21
101.111
 31
0.0
  0
LINE
  8
0
 62
     0
 10
48.8184
 20
101.111
 30
0.0
 11
62.72
 21
101.111
 31
0.0
  0
LINE
  8
0
 62
     0
 10
62.72
 20
101.111
 30
0.0
 11
62.72
 21
87.2105
 31
0.0
  0
LINE
  8
0
 62
     0
 10
62.72
 20
87.2105
 30
0.0
 11
48.8184
 21
87.2105
 31
0.0
  0
LINE
  8
0
 62
     0
 10
48.8184
 20
87.2105
 30
0.0
 11
48.8184
 21
101.111
 31
0.0
  0
LINE
  8
0
 62
     0
 10
67.8684
 20
101.111
 30
0.0
 11
81.77
 21
101.111
 31
0.0
  0
LINE
  8
0
 62
     0
 10
81.77
 20
101.111
 30
0.0
 11
81.77
 21
87.2105
 31
0.0
  0
LINE
  8
0
 62
     0
 10
81.77
 20
87.2105
 30
0.0
 11
67.8684
 21
87.2105
 31
0.0
  0
LINE
  8
0
 62
     0
 10
67.8684
 20
87.2105
 30
0.0
 11
67.8684
 21
101.111
 31
0.0
  0
LINE
  8
0
 62
     0
 10
86.9184
 20
101.111
 30
0.0
 11
100.82
 21
101.111
 31
0.0
  0
LINE
  8
0
 62
     0
 10
100.82
 20
101.111
 30
0.0
 11
100.82
 21
87.2105
 31
0.0
  0
LINE
  8
0
 62
     0
 10
100.82
 20
87.2105
 30
0.0
 11
86.9184
 21
87.2105
 31
0.0
  0
LINE
  8
0
 62
     0
 10
86.9184
 20
87.2105
 30
0.0
 11
86.9184
 21
101.111
 31
0.0
  0
LINE
  8
0
 62
     0
 10
105.968
 20
101.111
 30
0.0
 11
119.869
 21
101.111
 31
0.0
  0
LINE
  8
0
 62
     0
 10
119.869
 20
101.111
 30
0.0
 11
119.869
 21
87.2105
 31
0.0
  0
LINE
  8
0
 62
     0
 10
119.869
 20
87.2105
 30
0.0
 11
105.968
 21
87.2105
 31
0.0
  0
LINE
  8
0
 62
     0
 10
105.968
 20
87.2105
 30
0.0
 11
105.968
 21
101.111
 31
0.0
  0
LINE
  8
0
 62
     0
 10
125.02
 20
101.111
 30
0.0
 11
138.92
 21
101.111
 31
0.0
  0
LINE
  8
0
 62
     0
 10
138.92
 20
101.111
 30
0.0
 11
138.92
 21
87.2105
 31
0.0
  0
LINE
  8
0
 62
     0
 10
138.92
 20
87.2105
 30
0.0
 11
125.02
 21
87.2105
 31
0.0
  0
LINE
  8
0
 62
     0
 10
125.02
 20
87.2105
 30
0.0
 11
125.02
 21
101.111
 31
0.0
  0
LINE
  8
0
 62
     0
 10
144.07
 20
101.111
 30
0.0
 11
157.97
 21
101.111
 31
0.0
  0
LINE
  8
0
 62
     0
 10
157.97
 20
101.111
 30
0.0
 11
157.97
 21
87.2105
 31
0.0
  0
LINE
  8
0
 62
     0
 10
157.97
 20
87.2105
 30
0.0
 11
144.07
 21
87.2105
 31
0.0
  0
LINE
  8
0
 62
     0
 10
144.07
 20
87.2105
 30
0.0
 11
144.07
 21
101.111
 31
0.0
  0
LINE
  8
0
 62
     0
 10
163.12
 20
101.111
 30
0.0
 11
177.02
 21
101.111
 31
0.0
  0
LINE
  8
0
 62
     0
 10
177.02
 20
101.111
 30
0.0
 11
177.02
 21
87.2105
 31
0.0
  0
LINE
  8
0
 62
     0
 10
177.02
 20
87.2105
 30
0.0
 11
163.12
 21
87.2105
 31
0.0
  0
LINE
  8
0
 62
     0
 10
163.12
 20
87.2105
 30
0.0
 11
163.12
 21
101.111
 31
0.0
  0
LINE
  8
0
 62
     0
 10
182.17
 20
101.111
 30
0.0
 11
196.07
 21
101.111
 31
0.0
  0
LINE
  8
0
 62
     0
 10
196.07
 20
101.111
 30
0.0
 11
196.07
 21
87.2105
 31
0.0
  0
LINE
  8
0
 62
     0
 10
196.07
 20
87.2105
 30
0.0
 11
182.17
 21
87.2105
 31
0.0
  0
LINE
  8
0
 62
     0
 10
182.17
 20
87.2105
 30
0.0
 11
182.17
 21
101.111
 31
0.0
  0
LINE
  8
0
 62
     0
 10
201.22
 20
101.111
 30
0.0
 11
215.12
 21
101.111
 31
0.0
  0
LINE
  8
0
 62
     0
 10
215.12
 20
101.111
 30
0.0
 11
215.12
 21
87.2105
 31
0.0
  0
LINE
  8
0
 62
     0
 10
215.12
 20
87.2105
 30
0.0
 11
201.22
 21
87.2105
 31
0.0
  0
LINE
  8
0
 62
     0
 10
201.22
 20
87.2105
 30
0.0
 11
201.22
 21
101.111
 31
0.0
  0
LINE
  8
0
 62
     0
 10
220.27
 20
101.111
 30
0.0
 11
234.17
 21
101.111
 31
0.0
  0
LINE
  8
0
 62
     0
 10
234.17
 20
101.111
 30
0.0
 11
234.17
 21
87.2105
 31
0.0
  0
LINE
  8
0
 62
     0
 10
234.17
 20
87.2105
 30
0.0
 11
220.27
 21
87.2105
 31
0.0
  0
LINE
  8
0
 62
     0
 10
220.27
 20
87.2105
 30
0.0
 11
220.27
 21
101.111
 31
0.0
  0
LINE
  8
0
 62
     0
 10
239.32
 20
101.111
 30
0.0
 11
253.22
 21
101.111
 31
0.0
  0
LINE
  8
0
 62
     0
 10
253.22
 20
101.111
 30
0.0
 11
253.22
 21
87.2105
 31
0.0
  0
LINE
  8
0
 62
     0
 10
253.22
 20
87.2105
 30
0.0
 11
239.32
 21
87.2105
 31
0.0
  0
LINE
  8
0
 62
     0
 10
239.32
 20
87.2105
 30
0.0
 11
239.32
 21
101.111
 31
0.0
  0
LINE
  8
0
 62
     0
 10
108.118
 20
108.59
 30
0.0
 11
107.852
 21
108.456
 31
0.0
  0
LINE
  8
0
 62
     0
 10
107.852
 20
108.456
 30
0.0
 11
107.643
 21
108.245
 31
0.0
  0
LINE
  8
0
 62
     0
 10
107.643
 20
108.245
 30
0.0
 11
107.508
 21
107.98
 31
0.0
  0
LINE
  8
0
 62
     0
 10
107.508
 20
107.98
 30
0.0
 11
107.462
 21
107.685
 31
0.0
  0
LINE
  8
0
 62
     0
 10
107.462
 20
107.685
 30
0.0
 11
107.508
 21
107.393
 31
0.0
  0
LINE
  8
0
 62
     0
 10
107.508
 20
107.393
 30
0.0
 11
107.643
 21
107.129
 31
0.0
  0
LINE
  8
0
 62
     0
 10
107.643
 20
107.129
 30
0.0
 11
107.852
 21
106.918
 31
0.0
  0
LINE
  8
0
 62
     0
 10
107.852
 20
106.918
 30
0.0
 11
108.118
 21
106.783
 31
0.0
  0
LINE
  8
0
 62
     0
 10
108.118
 20
106.783
 30
0.0
 11
108.412
 21
106.736
 31
0.0
  0
LINE
  8
0
 62
     0
 10
108.412
 20
106.736
 30
0.0
 11
108.705
 21
106.783
 31
0.0
  0
LINE
  8
0
 62
     0
 10
108.705
 20
106.783
 30
0.0
 11
108.97
 21
106.918
 31
0.0
  0
LINE
  8
0
 62
     0
 10
108.97
 20
106.918
 30
0.0
 11
109.179
 21
107.129
 31
0.0
  0
LINE
  8
0
 62
     0
 10
109.179
 20
107.129
 30
0.0
 11
109.314
 21
107.393
 31
0.0
  0
LINE
  8
0
 62
     0
 10
109.314
 20
107.393
 30
0.0
 11
109.361
 21
107.685
 31
0.0
  0
LINE
  8
0
 62
     0
 10
109.361
 20
107.685
 30
0.0
 11
109.314
 21
107.98
 31
0.0
  0
LINE
  8
0
 62
     0
 10
109.314
 20
107.98
 30
0.0
 11
109.179
 21
108.245
 31
0.0
  0
LINE
  8
0
 62
     0
 10
109.179
 20
108.245
 30
0.0
 11
108.97
 21
108.456
 31
0.0
  0
LINE
  8
0
 62
     0
 10
108.97
 20
108.456
 30
0.0
 11
108.705
 21
108.59
 31
0.0
  0
LINE
  8
0
 62
     0
 10
108.705
 20
108.59
 30
0.0
 11
108.412
 21
108.636
 31
0.0
  0
LINE
  8
0
 62
     0
 10
108.412
 20
108.636
 30
0.0
 11
108.118
 21
108.59
 31
0.0
  0
LINE
  8
0
 62
     0
 10
212.385
 20
108.59
 30
0.0
 11
212.12
 21
108.456
 31
0.0
  0
LINE
  8
0
 62
     0
 10
212.12
 20
108.456
 30
0.0
 11
211.909
 21
108.245
 31
0.0
  0
LINE
  8
0
 62
     0
 10
211.909
 20
108.245
 30
0.0
 11
211.774
 21
107.98
 31
0.0
  0
LINE
  8
0
 62
     0
 10
211.774
 20
107.98
 30
0.0
 11
211.729
 21
107.685
 31
0.0
  0
LINE
  8
0
 62
     0
 10
211.729
 20
107.685
 30
0.0
 11
211.774
 21
107.393
 31
0.0
  0
LINE
  8
0
 62
     0
 10
211.774
 20
107.393
 30
0.0
 11
211.909
 21
107.129
 31
0.0
  0
LINE
  8
0
 62
     0
 10
211.909
 20
107.129
 30
0.0
 11
212.12
 21
106.918
 31
0.0
  0
LINE
  8
0
 62
     0
 10
212.12
 20
106.918
 30
0.0
 11
212.385
 21
106.783
 31
0.0
  0
LINE
  8
0
 62
     0
 10
212.385
 20
106.783
 30
0.0
 11
212.678
 21
106.736
 31
0.0
  0
LINE
  8
0
 62
     0
 10
212.678
 20
106.736
 30
0.0
 11
212.972
 21
106.783
 31
0.0
  0
LINE
  8
0
 62
     0
 10
212.972
 20
106.783
 30
0.0
 11
213.236
 21
106.918
 31
0.0
  0
LINE
  8
0
 62
     0
 10
213.236
 20
106.918
 30
0.0
 11
213.447
 21
107.129
 31
0.0
  0
LINE
  8
0
 62
     0
 10
213.447
 20
107.129
 30
0.0
 11
213.582
 21
107.393
 31
0.0
  0
LINE
  8
0
 62
     0
 10
213.582
 20
107.393
 30
0.0
 11
213.629
 21
107.685
 31
0.0
  0
LINE
  8
0
 62
     0
 10
213.629
 20
107.685
 30
0.0
 11
213.582
 21
107.98
 31
0.0
  0
LINE
  8
0
 62
     0
 10
213.582
 20
107.98
 30
0.0
 11
213.447
 21
108.245
 31
0.0
  0
LINE
  8
0
 62
     0
 10
213.447
 20
108.245
 30
0.0
 11
213.236
 21
108.456
 31
0.0
  0
LINE
  8
0
 62
     0
 10
213.236
 20
108.456
 30
0.0
 11
212.972
 21
108.59
 31
0.0
  0
LINE
  8
0
 62
     0
 10
212.972
 20
108.59
 30
0.0
 11
212.678
 21
108.636
 31
0.0
  0
LINE
  8
0
 62
     0
 10
212.678
 20
108.636
 30
0.0
 11
212.385
 21
108.59
 31
0.0
  0
LINE
  8
0
 62
     0
 10
316.651
 20
108.59
 30
0.0
 11
316.387
 21
108.456
 31
0.0
  0
LINE
  8
0
 62
     0
 10
316.387
 20
108.456
 30
0.0
 11
316.177
 21
108.245
 31
0.0
  0
LINE
  8
0
 62
     0
 10
316.177
 20
108.245
 30
0.0
 11
316.042
 21
107.98
 31
0.0
  0
LINE
  8
0
 62
     0
 10
316.042
 20
107.98
 30
0.0
 11
315.995
 21
107.685
 31
0.0
  0
LINE
  8
0
 62
     0
 10
315.995
 20
107.685
 30
0.0
 11
316.042
 21
107.393
 31
0.0
  0
LINE
  8
0
 62
     0
 10
316.042
 20
107.393
 30
0.0
 11
316.177
 21
107.129
 31
0.0
  0
LINE
  8
0
 62
     0
 10
316.177
 20
107.129
 30
0.0
 11
316.387
 21
106.918
 31
0.0
  0
LINE
  8
0
 62
     0
 10
316.387
 20
106.918
 30
0.0
 11
316.651
 21
106.783
 31
0.0
  0
LINE
  8
0
 62
     0
 10
316.651
 20
106.783
 30
0.0
 11
316.946
 21
106.736
 31
0.0
  0
LINE
  8
0
 62
     0
 10
316.946
 20
106.736
 30
0.0
 11
317.238
 21
106.783
 31
0.0
  0
LINE
  8
0
 62
     0
 10
317.238
 20
106.783
 30
0.0
 11
317.504
 21
106.918
 31
0.0
  0
LINE
  8
0
 62
     0
 10
317.504
 20
106.918
 30
0.0
 11
317.713
 21
107.129
 31
0.0
  0
LINE
  8
0
 62
     0
 10
317.713
 20
107.129
 30
0.0
 11
317.849
 21
107.393
 31
0.0
  0
LINE
  8
0
 62
     0
 10
317.849
 20
107.393
 30
0.0
 11
317.895
 21
107.685
 31
0.0
  0
LINE
  8
0
 62
     0
 10
317.895
 20
107.685
 30
0.0
 11
317.849
 21
107.98
 31
0.0
  0
LINE
  8
0
 62
     0
 10
317.849
 20
107.98
 30
0.0
 11
317.713
 21
108.245
 31
0.0
  0
LINE
  8
0
 62
     0
 10
317.713
 20
108.245
 30
0.0
 11
317.504
 21
108.456
 31
0.0
  0
LINE
  8
0
 62
     0
 10
317.504
 20
108.456
 30
0.0
 11
317.238
 21
108.59
 31
0.0
  0
LINE
  8
0
 62
     0
 10
317.238
 20
108.59
 30
0.0
 11
316.946
 21
108.636
 31
0.0
  0
LINE
  8
0
 62
     0
 10
316.946
 20
108.636
 30
0.0
 11
316.651
 21
108.59
 31
0.0
  0
LINE
  8
0
 62
     0
 10
3.85025
 20
108.59
 30
0.0
 11
3.58567
 21
108.456
 31
0.0
  0
LINE
  8
0
 62
     0
 10
3.58567
 20
108.456
 30
0.0
 11
3.37482
 21
108.245
 31
0.0
  0
LINE
  8
0
 62
     0
 10
3.37482
 20
108.245
 30
0.0
 11
3.24115
 21
107.98
 31
0.0
  0
LINE
  8
0
 62
     0
 10
3.24115
 20
107.98
 30
0.0
 11
3.19291
 21
107.687
 31
0.0
  0
LINE
  8
0
 62
     0
 10
3.19291
 20
107.687
 30
0.0
 11
3.24115
 21
107.393
 31
0.0
  0
LINE
  8
0
 62
     0
 10
3.24115
 20
107.393
 30
0.0
 11
3.37482
 21
107.129
 31
0.0
  0
LINE
  8
0
 62
     0
 10
3.37482
 20
107.129
 30
0.0
 11
3.58567
 21
106.918
 31
0.0
  0
LINE
  8
0
 62
     0
 10
3.58567
 20
106.918
 30
0.0
 11
3.85025
 21
106.783
 31
0.0
  0
LINE
  8
0
 62
     0
 10
3.85025
 20
106.783
 30
0.0
 11
4.14376
 21
106.737
 31
0.0
  0
LINE
  8
0
 62
     0
 10
4.14376
 20
106.737
 30
0.0
 11
4.43727
 21
106.783
 31
0.0
  0
LINE
  8
0
 62
     0
 10
4.43727
 20
106.783
 30
0.0
 11
4.70186
 21
106.918
 31
0.0
  0
LINE
  8
0
 62
     0
 10
4.70186
 20
106.918
 30
0.0
 11
4.91271
 21
107.129
 31
0.0
  0
LINE
  8
0
 62
     0
 10
4.91271
 20
107.129
 30
0.0
 11
5.04776
 21
107.393
 31
0.0
  0
LINE
  8
0
 62
     0
 10
5.04776
 20
107.393
 30
0.0
 11
5.09323
 21
107.687
 31
0.0
  0
LINE
  8
0
 62
     0
 10
5.09323
 20
107.687
 30
0.0
 11
5.04776
 21
107.98
 31
0.0
  0
LINE
  8
0
 62
     0
 10
5.04776
 20
107.98
 30
0.0
 11
4.91271
 21
108.245
 31
0.0
  0
LINE
  8
0
 62
     0
 10
4.91271
 20
108.245
 30
0.0
 11
4.70186
 21
108.456
 31
0.0
  0
LINE
  8
0
 62
     0
 10
4.70186
 20
108.456
 30
0.0
 11
4.43727
 21
108.59
 31
0.0
  0
LINE
  8
0
 62
     0
 10
4.43727
 20
108.59
 30
0.0
 11
4.14376
 21
108.638
 31
0.0
  0
LINE
  8
0
 62
     0
 10
4.14376
 20
108.638
 30
0.0
 11
3.85025
 21
108.59
 31
0.0
  0
ENDSEC
  0
EOF
