  0
SECTION
  2
HEADER
  9
$ACADVER
  1
AC1009
  9
$FILLMODE
 70
 0
  9
$SPLFRAME
 70
 1
  9
$EXTMIN
 10
0
 20
0
 30
0.0
  9
$EXTMAX
 10
1058.33
 20
1058.33
 30
0.0
  0
ENDSEC
  0
SECTION
  2
TABLES
  0
TABLE
  2
LAYER
 70
1
  0
LAYER
  2
0
 70
     0
 62
     7
  6
CONTINUOUS
  0
ENDTAB
  0
ENDSEC
  0
SECTION
  2
ENTITIES
  0
LINE
  8
0
 62
     0
 10
0.0950846
 20
111.735
 30
0.0
 11
320.996
 21
111.735
 31
0.0
  0
LINE
  8
0
 62
     0
 10
320.996
 20
111.735
 30
0.0
 11
320.996
 21
0.385851
 31
0.0
  0
LINE
  8
0
 62
     0
 10
320.996
 20
0.385851
 30
0.0
 11
0.0950846
 21
0.385851
 31
0.0
  0
LINE
  8
0
 62
     0
 10
0.0950846
 20
0.385851
 30
0.0
 11
0.0950846
 21
111.735
 31
0.0
  0
LINE
  8
0
 62
     0
 10
316.651
 20
5.33852
 30
0.0
 11
316.387
 21
5.20347
 31
0.0
  0
LINE
  8
0
 62
     0
 10
316.387
 20
5.20347
 30
0.0
 11
316.177
 21
4.99403
 31
0.0
  0
LINE
  8
0
 62
     0
 10
316.177
 20
4.99403
 30
0.0
 11
316.042
 21
4.72944
 31
0.0
  0
LINE
  8
0
 62
     0
 10
316.042
 20
4.72944
 30
0.0
 11
315.995
 21
4.43452
 31
0.0
  0
LINE
  8
0
 62
     0
 10
315.995
 20
4.43452
 30
0.0
 11
316.042
 21
4.14239
 31
0.0
  0
LINE
  8
0
 62
     0
 10
316.042
 20
4.14239
 30
0.0
 11
316.177
 21
3.87643
 31
0.0
  0
LINE
  8
0
 62
     0
 10
316.177
 20
3.87643
 30
0.0
 11
316.387
 21
3.66695
 31
0.0
  0
LINE
  8
0
 62
     0
 10
316.387
 20
3.66695
 30
0.0
 11
316.651
 21
3.53191
 31
0.0
  0
LINE
  8
0
 62
     0
 10
316.651
 20
3.53191
 30
0.0
 11
316.946
 21
3.48506
 31
0.0
  0
LINE
  8
0
 62
     0
 10
316.946
 20
3.48506
 30
0.0
 11
317.238
 21
3.53191
 31
0.0
  0
LINE
  8
0
 62
     0
 10
317.238
 20
3.53191
 30
0.0
 11
317.504
 21
3.66695
 31
0.0
  0
LINE
  8
0
 62
     0
 10
317.504
 20
3.66695
 30
0.0
 11
317.713
 21
3.87643
 31
0.0
  0
LINE
  8
0
 62
     0
 10
317.713
 20
3.87643
 30
0.0
 11
317.849
 21
4.14239
 31
0.0
  0
LINE
  8
0
 62
     0
 10
317.849
 20
4.14239
 30
0.0
 11
317.895
 21
4.43452
 31
0.0
  0
LINE
  8
0
 62
     0
 10
317.895
 20
4.43452
 30
0.0
 11
317.849
 21
4.72944
 31
0.0
  0
LINE
  8
0
 62
     0
 10
317.849
 20
4.72944
 30
0.0
 11
317.713
 21
4.99403
 31
0.0
  0
LINE
  8
0
 62
     0
 10
317.713
 20
4.99403
 30
0.0
 11
317.504
 21
5.20347
 31
0.0
  0
LINE
  8
0
 62
     0
 10
317.504
 20
5.20347
 30
0.0
 11
317.238
 21
5.33852
 31
0.0
  0
LINE
  8
0
 62
     0
 10
317.238
 20
5.33852
 30
0.0
 11
316.946
 21
5.38674
 31
0.0
  0
LINE
  8
0
 62
     0
 10
316.946
 20
5.38674
 30
0.0
 11
316.651
 21
5.33852
 31
0.0
  0
LINE
  8
0
 62
     0
 10
212.385
 20
5.33852
 30
0.0
 11
212.12
 21
5.20347
 31
0.0
  0
LINE
  8
0
 62
     0
 10
212.12
 20
5.20347
 30
0.0
 11
211.909
 21
4.99403
 31
0.0
  0
LINE
  8
0
 62
     0
 10
211.909
 20
4.99403
 30
0.0
 11
211.774
 21
4.72944
 31
0.0
  0
LINE
  8
0
 62
     0
 10
211.774
 20
4.72944
 30
0.0
 11
211.729
 21
4.43452
 31
0.0
  0
LINE
  8
0
 62
     0
 10
211.729
 20
4.43452
 30
0.0
 11
211.774
 21
4.14239
 31
0.0
  0
LINE
  8
0
 62
     0
 10
211.774
 20
4.14239
 30
0.0
 11
211.909
 21
3.87643
 31
0.0
  0
LINE
  8
0
 62
     0
 10
211.909
 20
3.87643
 30
0.0
 11
212.12
 21
3.66695
 31
0.0
  0
LINE
  8
0
 62
     0
 10
212.12
 20
3.66695
 30
0.0
 11
212.385
 21
3.53191
 31
0.0
  0
LINE
  8
0
 62
     0
 10
212.385
 20
3.53191
 30
0.0
 11
212.678
 21
3.48506
 31
0.0
  0
LINE
  8
0
 62
     0
 10
212.678
 20
3.48506
 30
0.0
 11
212.972
 21
3.53191
 31
0.0
  0
LINE
  8
0
 62
     0
 10
212.972
 20
3.53191
 30
0.0
 11
213.236
 21
3.66695
 31
0.0
  0
LINE
  8
0
 62
     0
 10
213.236
 20
3.66695
 30
0.0
 11
213.447
 21
3.87643
 31
0.0
  0
LINE
  8
0
 62
     0
 10
213.447
 20
3.87643
 30
0.0
 11
213.582
 21
4.14239
 31
0.0
  0
LINE
  8
0
 62
     0
 10
213.582
 20
4.14239
 30
0.0
 11
213.629
 21
4.43452
 31
0.0
  0
LINE
  8
0
 62
     0
 10
213.629
 20
4.43452
 30
0.0
 11
213.582
 21
4.72944
 31
0.0
  0
LINE
  8
0
 62
     0
 10
213.582
 20
4.72944
 30
0.0
 11
213.447
 21
4.99403
 31
0.0
  0
LINE
  8
0
 62
     0
 10
213.447
 20
4.99403
 30
0.0
 11
213.236
 21
5.20347
 31
0.0
  0
LINE
  8
0
 62
     0
 10
213.236
 20
5.20347
 30
0.0
 11
212.972
 21
5.33852
 31
0.0
  0
LINE
  8
0
 62
     0
 10
212.972
 20
5.33852
 30
0.0
 11
212.678
 21
5.38674
 31
0.0
  0
LINE
  8
0
 62
     0
 10
212.678
 20
5.38674
 30
0.0
 11
212.385
 21
5.33852
 31
0.0
  0
LINE
  8
0
 62
     0
 10
108.118
 20
5.33852
 30
0.0
 11
107.852
 21
5.20347
 31
0.0
  0
LINE
  8
0
 62
     0
 10
107.852
 20
5.20347
 30
0.0
 11
107.643
 21
4.99403
 31
0.0
  0
LINE
  8
0
 62
     0
 10
107.643
 20
4.99403
 30
0.0
 11
107.508
 21
4.72944
 31
0.0
  0
LINE
  8
0
 62
     0
 10
107.508
 20
4.72944
 30
0.0
 11
107.462
 21
4.43452
 31
0.0
  0
LINE
  8
0
 62
     0
 10
107.462
 20
4.43452
 30
0.0
 11
107.508
 21
4.14239
 31
0.0
  0
LINE
  8
0
 62
     0
 10
107.508
 20
4.14239
 30
0.0
 11
107.643
 21
3.87643
 31
0.0
  0
LINE
  8
0
 62
     0
 10
107.643
 20
3.87643
 30
0.0
 11
107.852
 21
3.66695
 31
0.0
  0
LINE
  8
0
 62
     0
 10
107.852
 20
3.66695
 30
0.0
 11
108.118
 21
3.53191
 31
0.0
  0
LINE
  8
0
 62
     0
 10
108.118
 20
3.53191
 30
0.0
 11
108.412
 21
3.48506
 31
0.0
  0
LINE
  8
0
 62
     0
 10
108.412
 20
3.48506
 30
0.0
 11
108.705
 21
3.53191
 31
0.0
  0
LINE
  8
0
 62
     0
 10
108.705
 20
3.53191
 30
0.0
 11
108.97
 21
3.66695
 31
0.0
  0
LINE
  8
0
 62
     0
 10
108.97
 20
3.66695
 30
0.0
 11
109.179
 21
3.87643
 31
0.0
  0
LINE
  8
0
 62
     0
 10
109.179
 20
3.87643
 30
0.0
 11
109.314
 21
4.14239
 31
0.0
  0
LINE
  8
0
 62
     0
 10
109.314
 20
4.14239
 30
0.0
 11
109.361
 21
4.43452
 31
0.0
  0
LINE
  8
0
 62
     0
 10
109.361
 20
4.43452
 30
0.0
 11
109.314
 21
4.72944
 31
0.0
  0
LINE
  8
0
 62
     0
 10
109.314
 20
4.72944
 30
0.0
 11
109.179
 21
4.99403
 31
0.0
  0
LINE
  8
0
 62
     0
 10
109.179
 20
4.99403
 30
0.0
 11
108.97
 21
5.20347
 31
0.0
  0
LINE
  8
0
 62
     0
 10
108.97
 20
5.20347
 30
0.0
 11
108.705
 21
5.33852
 31
0.0
  0
LINE
  8
0
 62
     0
 10
108.705
 20
5.33852
 30
0.0
 11
108.412
 21
5.38674
 31
0.0
  0
LINE
  8
0
 62
     0
 10
108.412
 20
5.38674
 30
0.0
 11
108.118
 21
5.33852
 31
0.0
  0
LINE
  8
0
 62
     0
 10
3.85025
 20
5.33852
 30
0.0
 11
3.58567
 21
5.20347
 31
0.0
  0
LINE
  8
0
 62
     0
 10
3.58567
 20
5.20347
 30
0.0
 11
3.37482
 21
4.99403
 31
0.0
  0
LINE
  8
0
 62
     0
 10
3.37482
 20
4.99403
 30
0.0
 11
3.24115
 21
4.72944
 31
0.0
  0
LINE
  8
0
 62
     0
 10
3.24115
 20
4.72944
 30
0.0
 11
3.19291
 21
4.43452
 31
0.0
  0
LINE
  8
0
 62
     0
 10
3.19291
 20
4.43452
 30
0.0
 11
3.24115
 21
4.14239
 31
0.0
  0
LINE
  8
0
 62
     0
 10
3.24115
 20
4.14239
 30
0.0
 11
3.37482
 21
3.87643
 31
0.0
  0
LINE
  8
0
 62
     0
 10
3.37482
 20
3.87643
 30
0.0
 11
3.58567
 21
3.66695
 31
0.0
  0
LINE
  8
0
 62
     0
 10
3.58567
 20
3.66695
 30
0.0
 11
3.85025
 21
3.53191
 31
0.0
  0
LINE
  8
0
 62
     0
 10
3.85025
 20
3.53191
 30
0.0
 11
4.14376
 21
3.48506
 31
0.0
  0
LINE
  8
0
 62
     0
 10
4.14376
 20
3.48506
 30
0.0
 11
4.43727
 21
3.53191
 31
0.0
  0
LINE
  8
0
 62
     0
 10
4.43727
 20
3.53191
 30
0.0
 11
4.70186
 21
3.66695
 31
0.0
  0
LINE
  8
0
 62
     0
 10
4.70186
 20
3.66695
 30
0.0
 11
4.91271
 21
3.87643
 31
0.0
  0
LINE
  8
0
 62
     0
 10
4.91271
 20
3.87643
 30
0.0
 11
5.04776
 21
4.14239
 31
0.0
  0
LINE
  8
0
 62
     0
 10
5.04776
 20
4.14239
 30
0.0
 11
5.09323
 21
4.43452
 31
0.0
  0
LINE
  8
0
 62
     0
 10
5.09323
 20
4.43452
 30
0.0
 11
5.04776
 21
4.72944
 31
0.0
  0
LINE
  8
0
 62
     0
 10
5.04776
 20
4.72944
 30
0.0
 11
4.91271
 21
4.99403
 31
0.0
  0
LINE
  8
0
 62
     0
 10
4.91271
 20
4.99403
 30
0.0
 11
4.70186
 21
5.20347
 31
0.0
  0
LINE
  8
0
 62
     0
 10
4.70186
 20
5.20347
 30
0.0
 11
4.43727
 21
5.33852
 31
0.0
  0
LINE
  8
0
 62
     0
 10
4.43727
 20
5.33852
 30
0.0
 11
4.14376
 21
5.38674
 31
0.0
  0
LINE
  8
0
 62
     0
 10
4.14376
 20
5.38674
 30
0.0
 11
3.85025
 21
5.33852
 31
0.0
  0
LINE
  8
0
 62
     0
 10
8.19383
 20
103.637
 30
0.0
 11
312.896
 21
103.637
 31
0.0
  0
LINE
  8
0
 62
     0
 10
312.896
 20
103.637
 30
0.0
 11
312.896
 21
8.48596
 31
0.0
  0
LINE
  8
0
 62
     0
 10
312.896
 20
8.48596
 30
0.0
 11
8.19383
 21
8.48596
 31
0.0
  0
LINE
  8
0
 62
     0
 10
8.19383
 20
8.48596
 30
0.0
 11
8.19383
 21
103.637
 31
0.0
  0
LINE
  8
0
 62
     0
 10
108.118
 20
108.59
 30
0.0
 11
107.852
 21
108.456
 31
0.0
  0
LINE
  8
0
 62
     0
 10
107.852
 20
108.456
 30
0.0
 11
107.643
 21
108.245
 31
0.0
  0
LINE
  8
0
 62
     0
 10
107.643
 20
108.245
 30
0.0
 11
107.508
 21
107.98
 31
0.0
  0
LINE
  8
0
 62
     0
 10
107.508
 20
107.98
 30
0.0
 11
107.462
 21
107.685
 31
0.0
  0
LINE
  8
0
 62
     0
 10
107.462
 20
107.685
 30
0.0
 11
107.508
 21
107.393
 31
0.0
  0
LINE
  8
0
 62
     0
 10
107.508
 20
107.393
 30
0.0
 11
107.643
 21
107.129
 31
0.0
  0
LINE
  8
0
 62
     0
 10
107.643
 20
107.129
 30
0.0
 11
107.852
 21
106.918
 31
0.0
  0
LINE
  8
0
 62
     0
 10
107.852
 20
106.918
 30
0.0
 11
108.118
 21
106.783
 31
0.0
  0
LINE
  8
0
 62
     0
 10
108.118
 20
106.783
 30
0.0
 11
108.412
 21
106.736
 31
0.0
  0
LINE
  8
0
 62
     0
 10
108.412
 20
106.736
 30
0.0
 11
108.705
 21
106.783
 31
0.0
  0
LINE
  8
0
 62
     0
 10
108.705
 20
106.783
 30
0.0
 11
108.97
 21
106.918
 31
0.0
  0
LINE
  8
0
 62
     0
 10
108.97
 20
106.918
 30
0.0
 11
109.179
 21
107.129
 31
0.0
  0
LINE
  8
0
 62
     0
 10
109.179
 20
107.129
 30
0.0
 11
109.314
 21
107.393
 31
0.0
  0
LINE
  8
0
 62
     0
 10
109.314
 20
107.393
 30
0.0
 11
109.361
 21
107.685
 31
0.0
  0
LINE
  8
0
 62
     0
 10
109.361
 20
107.685
 30
0.0
 11
109.314
 21
107.98
 31
0.0
  0
LINE
  8
0
 62
     0
 10
109.314
 20
107.98
 30
0.0
 11
109.179
 21
108.245
 31
0.0
  0
LINE
  8
0
 62
     0
 10
109.179
 20
108.245
 30
0.0
 11
108.97
 21
108.456
 31
0.0
  0
LINE
  8
0
 62
     0
 10
108.97
 20
108.456
 30
0.0
 11
108.705
 21
108.59
 31
0.0
  0
LINE
  8
0
 62
     0
 10
108.705
 20
108.59
 30
0.0
 11
108.412
 21
108.636
 31
0.0
  0
LINE
  8
0
 62
     0
 10
108.412
 20
108.636
 30
0.0
 11
108.118
 21
108.59
 31
0.0
  0
LINE
  8
0
 62
     0
 10
212.385
 20
108.59
 30
0.0
 11
212.12
 21
108.456
 31
0.0
  0
LINE
  8
0
 62
     0
 10
212.12
 20
108.456
 30
0.0
 11
211.909
 21
108.245
 31
0.0
  0
LINE
  8
0
 62
     0
 10
211.909
 20
108.245
 30
0.0
 11
211.774
 21
107.98
 31
0.0
  0
LINE
  8
0
 62
     0
 10
211.774
 20
107.98
 30
0.0
 11
211.729
 21
107.685
 31
0.0
  0
LINE
  8
0
 62
     0
 10
211.729
 20
107.685
 30
0.0
 11
211.774
 21
107.393
 31
0.0
  0
LINE
  8
0
 62
     0
 10
211.774
 20
107.393
 30
0.0
 11
211.909
 21
107.129
 31
0.0
  0
LINE
  8
0
 62
     0
 10
211.909
 20
107.129
 30
0.0
 11
212.12
 21
106.918
 31
0.0
  0
LINE
  8
0
 62
     0
 10
212.12
 20
106.918
 30
0.0
 11
212.385
 21
106.783
 31
0.0
  0
LINE
  8
0
 62
     0
 10
212.385
 20
106.783
 30
0.0
 11
212.678
 21
106.736
 31
0.0
  0
LINE
  8
0
 62
     0
 10
212.678
 20
106.736
 30
0.0
 11
212.972
 21
106.783
 31
0.0
  0
LINE
  8
0
 62
     0
 10
212.972
 20
106.783
 30
0.0
 11
213.236
 21
106.918
 31
0.0
  0
LINE
  8
0
 62
     0
 10
213.236
 20
106.918
 30
0.0
 11
213.447
 21
107.129
 31
0.0
  0
LINE
  8
0
 62
     0
 10
213.447
 20
107.129
 30
0.0
 11
213.582
 21
107.393
 31
0.0
  0
LINE
  8
0
 62
     0
 10
213.582
 20
107.393
 30
0.0
 11
213.629
 21
107.685
 31
0.0
  0
LINE
  8
0
 62
     0
 10
213.629
 20
107.685
 30
0.0
 11
213.582
 21
107.98
 31
0.0
  0
LINE
  8
0
 62
     0
 10
213.582
 20
107.98
 30
0.0
 11
213.447
 21
108.245
 31
0.0
  0
LINE
  8
0
 62
     0
 10
213.447
 20
108.245
 30
0.0
 11
213.236
 21
108.456
 31
0.0
  0
LINE
  8
0
 62
     0
 10
213.236
 20
108.456
 30
0.0
 11
212.972
 21
108.59
 31
0.0
  0
LINE
  8
0
 62
     0
 10
212.972
 20
108.59
 30
0.0
 11
212.678
 21
108.636
 31
0.0
  0
LINE
  8
0
 62
     0
 10
212.678
 20
108.636
 30
0.0
 11
212.385
 21
108.59
 31
0.0
  0
LINE
  8
0
 62
     0
 10
316.651
 20
108.59
 30
0.0
 11
316.387
 21
108.456
 31
0.0
  0
LINE
  8
0
 62
     0
 10
316.387
 20
108.456
 30
0.0
 11
316.177
 21
108.245
 31
0.0
  0
LINE
  8
0
 62
     0
 10
316.177
 20
108.245
 30
0.0
 11
316.042
 21
107.98
 31
0.0
  0
LINE
  8
0
 62
     0
 10
316.042
 20
107.98
 30
0.0
 11
315.995
 21
107.685
 31
0.0
  0
LINE
  8
0
 62
     0
 10
315.995
 20
107.685
 30
0.0
 11
316.042
 21
107.393
 31
0.0
  0
LINE
  8
0
 62
     0
 10
316.042
 20
107.393
 30
0.0
 11
316.177
 21
107.129
 31
0.0
  0
LINE
  8
0
 62
     0
 10
316.177
 20
107.129
 30
0.0
 11
316.387
 21
106.918
 31
0.0
  0
LINE
  8
0
 62
     0
 10
316.387
 20
106.918
 30
0.0
 11
316.651
 21
106.783
 31
0.0
  0
LINE
  8
0
 62
     0
 10
316.651
 20
106.783
 30
0.0
 11
316.946
 21
106.736
 31
0.0
  0
LINE
  8
0
 62
     0
 10
316.946
 20
106.736
 30
0.0
 11
317.238
 21
106.783
 31
0.0
  0
LINE
  8
0
 62
     0
 10
317.238
 20
106.783
 30
0.0
 11
317.504
 21
106.918
 31
0.0
  0
LINE
  8
0
 62
     0
 10
317.504
 20
106.918
 30
0.0
 11
317.713
 21
107.129
 31
0.0
  0
LINE
  8
0
 62
     0
 10
317.713
 20
107.129
 30
0.0
 11
317.849
 21
107.393
 31
0.0
  0
LINE
  8
0
 62
     0
 10
317.849
 20
107.393
 30
0.0
 11
317.895
 21
107.685
 31
0.0
  0
LINE
  8
0
 62
     0
 10
317.895
 20
107.685
 30
0.0
 11
317.849
 21
107.98
 31
0.0
  0
LINE
  8
0
 62
     0
 10
317.849
 20
107.98
 30
0.0
 11
317.713
 21
108.245
 31
0.0
  0
LINE
  8
0
 62
     0
 10
317.713
 20
108.245
 30
0.0
 11
317.504
 21
108.456
 31
0.0
  0
LINE
  8
0
 62
     0
 10
317.504
 20
108.456
 30
0.0
 11
317.238
 21
108.59
 31
0.0
  0
LINE
  8
0
 62
     0
 10
317.238
 20
108.59
 30
0.0
 11
316.946
 21
108.636
 31
0.0
  0
LINE
  8
0
 62
     0
 10
316.946
 20
108.636
 30
0.0
 11
316.651
 21
108.59
 31
0.0
  0
LINE
  8
0
 62
     0
 10
3.85025
 20
108.59
 30
0.0
 11
3.58567
 21
108.456
 31
0.0
  0
LINE
  8
0
 62
     0
 10
3.58567
 20
108.456
 30
0.0
 11
3.37482
 21
108.245
 31
0.0
  0
LINE
  8
0
 62
     0
 10
3.37482
 20
108.245
 30
0.0
 11
3.24115
 21
107.98
 31
0.0
  0
LINE
  8
0
 62
     0
 10
3.24115
 20
107.98
 30
0.0
 11
3.19291
 21
107.687
 31
0.0
  0
LINE
  8
0
 62
     0
 10
3.19291
 20
107.687
 30
0.0
 11
3.24115
 21
107.393
 31
0.0
  0
LINE
  8
0
 62
     0
 10
3.24115
 20
107.393
 30
0.0
 11
3.37482
 21
107.129
 31
0.0
  0
LINE
  8
0
 62
     0
 10
3.37482
 20
107.129
 30
0.0
 11
3.58567
 21
106.918
 31
0.0
  0
LINE
  8
0
 62
     0
 10
3.58567
 20
106.918
 30
0.0
 11
3.85025
 21
106.783
 31
0.0
  0
LINE
  8
0
 62
     0
 10
3.85025
 20
106.783
 30
0.0
 11
4.14376
 21
106.737
 31
0.0
  0
LINE
  8
0
 62
     0
 10
4.14376
 20
106.737
 30
0.0
 11
4.43727
 21
106.783
 31
0.0
  0
LINE
  8
0
 62
     0
 10
4.43727
 20
106.783
 30
0.0
 11
4.70186
 21
106.918
 31
0.0
  0
LINE
  8
0
 62
     0
 10
4.70186
 20
106.918
 30
0.0
 11
4.91271
 21
107.129
 31
0.0
  0
LINE
  8
0
 62
     0
 10
4.91271
 20
107.129
 30
0.0
 11
5.04776
 21
107.393
 31
0.0
  0
LINE
  8
0
 62
     0
 10
5.04776
 20
107.393
 30
0.0
 11
5.09323
 21
107.687
 31
0.0
  0
LINE
  8
0
 62
     0
 10
5.09323
 20
107.687
 30
0.0
 11
5.04776
 21
107.98
 31
0.0
  0
LINE
  8
0
 62
     0
 10
5.04776
 20
107.98
 30
0.0
 11
4.91271
 21
108.245
 31
0.0
  0
LINE
  8
0
 62
     0
 10
4.91271
 20
108.245
 30
0.0
 11
4.70186
 21
108.456
 31
0.0
  0
LINE
  8
0
 62
     0
 10
4.70186
 20
108.456
 30
0.0
 11
4.43727
 21
108.59
 31
0.0
  0
LINE
  8
0
 62
     0
 10
4.43727
 20
108.59
 30
0.0
 11
4.14376
 21
108.638
 31
0.0
  0
LINE
  8
0
 62
     0
 10
4.14376
 20
108.638
 30
0.0
 11
3.85025
 21
108.59
 31
0.0
  0
ENDSEC
  0
EOF
